<svg data-v-0dd9719b="" version="1.0" xmlns="http://www.w3.org/2000/svg" xmlns:xlink="http://www.w3.org/1999/xlink" width="100%" height="100%" viewBox="0 0 340.000000 250.000000" preserveAspectRatio="xMidYMid meet" color-interpolation-filters="sRGB" style="margin: auto;"> <rect data-v-0dd9719b="" x="0" y="0" width="100%" height="100%"  fill-opacity="0" class="background"></rect> <!----> <g data-v-0dd9719b="" fill="#feffff" class="bordersvg b-d1" transform="translate(65.91000366210938,59.48588562011719)"><polyline stroke="#feffff" stroke-width="3" fill-opacity="0" fill="#00800d" points="109.08999633789062,30 109.08999633789062,10 10,10 10,131.02823638916016 109.08999633789062,131.02823638916016 109.08999633789062,111.02823638916016"></polyline> <polyline stroke="#feffff" stroke-width="3" fill-opacity="0" fill="#00800d" points="99.08999633789062,10 99.08999633789062,0 0,0 0,121.02823638916016 10,121.02823638916016"></polyline> <g transform="translate(10,30)"><g><rect data-gra="graph-name-bg" stroke-width="2" class="i-icon-bg" x="0" y="0" width="198.17999267578125" height="81.02823638916016" fill-opacity="0"></rect> <!----> <!----> </g> <g transform="translate(10,3)"><g data-gra="path-name" fill-rule="" class="tp-name" transform="translate(0,0)"><g transform="scale(1)"><g><path d="M7.23-15.21L5.26-8.06 9.5-8.06 7.52-15.21 7.23-15.21ZM10.86-16.17L13.63-6.75Q13.66-5.84 13.7-4.9 13.74-3.95 13.74-3.07L13.74-3.07 13.74-2.67Q13.74-2.16 13.71-1.69 13.67-1.21 13.5-0.83 13.33-0.45 12.95-0.23 12.58 0 11.9 0L11.9 0Q11.21 0 10.83-0.23 10.46-0.45 10.28-0.83 10.1-1.2 10.07-1.68 10.03-2.16 10.03-2.67L10.03-2.67 10.03-4.54 4.7-4.54 4.7-2.67Q4.7-2.16 4.66-1.68 4.63-1.2 4.45-0.83 4.27-0.45 3.9-0.23 3.52 0 2.83 0L2.83 0Q2.13 0 1.76-0.23 1.39-0.45 1.21-0.83 1.04-1.21 1.01-1.69 0.99-2.16 0.99-2.67L0.99-2.67 0.99-3.07Q0.99-3.48 0.99-3.95 1-4.42 1.01-4.9 1.03-5.38 1.04-5.85 1.05-6.32 1.07-6.75L1.07-6.75Q1.73-9.07 2.47-11.45 3.2-13.83 3.87-16.17L3.87-16.17Q4-16.66 4.19-17.12 4.38-17.58 4.68-17.92 4.99-18.26 5.47-18.47 5.95-18.68 6.7-18.68L6.7-18.68 8.03-18.68Q8.77-18.68 9.25-18.47 9.74-18.26 10.05-17.92 10.35-17.58 10.53-17.12 10.71-16.66 10.86-16.17L10.86-16.17ZM16.62-3.1L16.62-15.64Q16.62-16.21 16.66-16.76 16.69-17.3 16.88-17.73 17.06-18.16 17.47-18.42 17.88-18.68 18.62-18.68L18.62-18.68 23.03-18.68Q24.67-18.6 25.96-17.98L25.96-17.98Q26.51-17.72 27.04-17.32 27.56-16.93 27.98-16.35 28.39-15.77 28.64-14.98 28.9-14.2 28.9-13.15L28.9-13.15Q28.9-12.94 28.86-12.59 28.82-12.23 28.68-11.81 28.55-11.39 28.32-10.94 28.1-10.49 27.72-10.07 27.35-9.66 26.81-9.31 26.27-8.97 25.54-8.75L25.54-8.75Q26-8.57 26.48-8.26 26.96-7.96 27.35-7.5 27.74-7.03 27.98-6.38 28.23-5.72 28.23-4.86L28.23-4.86 28.23-2.96Q28.23-2.8 28.31-2.69 28.39-2.59 28.47-2.51L28.47-2.51Q28.79-2.19 28.84-1.95 28.9-1.72 28.9-1.57L28.9-1.57Q28.9-1.11 28.71-0.79 28.52-0.47 28.22-0.27 27.92-0.07 27.54 0.02 27.16 0.11 26.76 0.11L26.76 0.11Q26.32 0.11 25.87-0.03 25.42-0.17 25.04-0.44 24.67-0.71 24.43-1.11 24.2-1.51 24.2-2.03L24.2-2.03 24.2-4.86Q24.2-5.44 24.12-5.94 24.04-6.43 23.81-6.79 23.59-7.15 23.19-7.35 22.79-7.55 22.15-7.55L22.15-7.55 20.65-7.55 20.65-3.1Q20.65-2.51 20.62-1.95 20.59-1.39 20.4-0.95 20.21-0.52 19.8-0.26 19.38 0 18.62 0L18.62 0Q17.88 0 17.47-0.26 17.06-0.52 16.88-0.95 16.69-1.39 16.66-1.95 16.62-2.51 16.62-3.1L16.62-3.1ZM20.65-10.54L22.47-10.54Q23.13-10.57 23.67-10.86L23.67-10.86Q23.89-10.98 24.11-11.17 24.32-11.35 24.49-11.63 24.67-11.91 24.77-12.29 24.87-12.66 24.87-13.15L24.87-13.15Q24.87-13.59 24.77-13.93 24.67-14.28 24.51-14.53 24.35-14.78 24.14-14.96 23.93-15.13 23.72-15.24L23.72-15.24Q23.21-15.49 22.57-15.53L22.57-15.53 20.65-15.53 20.65-10.54ZM37.62-7.36L35.91-7.36 35.91-3.04Q35.91-2.47 35.88-1.92 35.85-1.37 35.65-0.95 35.46-0.52 35.05-0.26 34.63 0 33.86 0L33.86 0Q33.11 0 32.71-0.26 32.3-0.52 32.11-0.95 31.93-1.37 31.89-1.92 31.86-2.47 31.86-3.04L31.86-3.04 31.86-15.64Q31.86-16.21 31.89-16.76 31.93-17.3 32.11-17.73 32.3-18.16 32.71-18.42 33.11-18.68 33.86-18.68L33.86-18.68 38.26-18.68Q39.92-18.6 41.22-17.98L41.22-17.98Q41.78-17.72 42.31-17.32 42.84-16.92 43.26-16.34 43.68-15.76 43.93-14.96 44.19-14.17 44.19-13.13L44.19-13.13Q44.19-11.7 43.74-10.63 43.29-9.55 42.45-8.83 41.6-8.1 40.38-7.73 39.16-7.36 37.62-7.36L37.62-7.36ZM35.91-10.54L37.73-10.54Q38.4-10.58 38.93-10.86L38.93-10.86Q39.16-10.98 39.37-11.17 39.58-11.35 39.76-11.63 39.93-11.9 40.03-12.27 40.13-12.65 40.13-13.13L40.13-13.13Q40.13-13.58 40.03-13.92 39.93-14.26 39.77-14.51 39.61-14.76 39.41-14.93 39.21-15.1 39-15.22L39-15.22Q38.49-15.48 37.86-15.53L37.86-15.53 35.91-15.53 35.91-10.54ZM46.64-3.07L46.64-15.61Q46.64-16.18 46.7-16.73 46.76-17.28 46.98-17.71 47.2-18.14 47.64-18.41 48.08-18.68 48.86-18.68L48.86-18.68Q49.63-18.68 50.07-18.41 50.51-18.14 50.73-17.71 50.95-17.28 51.01-16.73 51.07-16.18 51.07-15.61L51.07-15.61 51.07-3.07Q51.07-2.48 51.02-1.93 50.96-1.39 50.74-0.95 50.52-0.52 50.08-0.26 49.63 0 48.86 0L48.86 0Q48.08 0 47.64-0.26 47.2-0.52 46.98-0.95 46.76-1.39 46.7-1.93 46.64-2.48 46.64-3.07L46.64-3.07ZM56.46-18.68L63.24-18.68Q63.77-18.68 64.31-18.64 64.85-18.6 65.29-18.41 65.73-18.22 66.01-17.84 66.28-17.46 66.28-16.78L66.28-16.78Q66.28-16.12 66.01-15.74 65.73-15.36 65.29-15.17 64.85-14.98 64.31-14.94 63.77-14.89 63.24-14.89L63.24-14.89 61.88-14.89 61.88-3.04Q61.88-2.47 61.84-1.92 61.81-1.37 61.62-0.95 61.44-0.52 61.02-0.26 60.61 0 59.85 0L59.85 0Q59.09 0 58.67-0.26 58.26-0.52 58.07-0.95 57.89-1.37 57.85-1.92 57.82-2.47 57.82-3.04L57.82-3.04 57.82-14.89 56.46-14.89Q55.93-14.89 55.39-14.94 54.85-14.98 54.41-15.17 53.97-15.36 53.69-15.74 53.42-16.12 53.42-16.78L53.42-16.78Q53.42-17.46 53.69-17.84 53.97-18.22 54.41-18.41 54.85-18.6 55.39-18.64 55.93-18.68 56.46-18.68L56.46-18.68ZM71.38-14.73L71.38-13.98Q71.38-13.61 71.33-13.26 71.28-12.91 71.12-12.65 70.95-12.38 70.63-12.22 70.31-12.06 69.77-12.06L69.77-12.06Q69.19-12.06 68.85-12.22 68.52-12.38 68.36-12.65 68.2-12.91 68.16-13.26 68.12-13.61 68.12-13.98L68.12-13.98 68.12-16.81Q68.12-17.14 68.16-17.49 68.2-17.84 68.36-18.11 68.52-18.38 68.85-18.56 69.19-18.73 69.77-18.73L69.77-18.73Q70.31-18.73 70.63-18.56 70.95-18.38 71.12-18.11 71.28-17.84 71.33-17.49 71.38-17.14 71.38-16.81L71.38-16.81 71.38-14.73ZM78.66-13.98L78.66-13.98Q78.67-13.42 78.99-12.97 79.3-12.53 79.81-12.13 80.33-11.73 80.98-11.35 81.64-10.97 82.32-10.55 83.01-10.13 83.66-9.63 84.32-9.14 84.84-8.51 85.36-7.88 85.68-7.1 86-6.31 86.02-5.31L86.02-5.31 86.02-5.2Q86.02-4.11 85.76-3.3 85.49-2.48 85.05-1.89 84.61-1.31 84.02-0.93 83.44-0.55 82.79-0.32 82.14-0.09 81.48 0 80.82 0.09 80.23 0.11L80.23 0.11 80.1 0.11Q78.97 0.11 78.11-0.12 77.26-0.35 76.65-0.73 76.03-1.11 75.62-1.6 75.22-2.09 74.98-2.62 74.74-3.15 74.63-3.67 74.52-4.19 74.52-4.64L74.52-4.64Q74.52-5.11 74.68-5.46 74.84-5.8 75.1-6.02 75.36-6.24 75.7-6.35 76.05-6.46 76.42-6.46L76.42-6.46Q76.77-6.46 77.13-6.35 77.5-6.24 77.8-6.02 78.1-5.8 78.29-5.46 78.49-5.12 78.5-4.67L78.5-4.67Q78.53-3.67 78.95-3.3 79.38-2.94 80.18-2.94L80.18-2.94Q80.58-2.95 80.92-3.04 81.26-3.12 81.5-3.34 81.74-3.56 81.88-3.93 82.02-4.3 82.02-4.86L82.02-4.86Q82.02-5.55 81.71-6.11 81.39-6.67 80.89-7.15 80.38-7.63 79.73-8.06 79.07-8.5 78.39-8.93 77.71-9.37 77.07-9.84 76.42-10.31 75.9-10.87 75.38-11.43 75.06-12.11 74.75-12.79 74.74-13.66L74.74-13.66 74.74-13.87Q74.75-15.3 75.12-16.25 75.48-17.2 76.2-17.76 76.91-18.32 77.95-18.55 78.99-18.78 80.34-18.78L80.34-18.78 80.69-18.78Q81.92-18.78 82.77-18.52 83.62-18.25 84.19-17.84 84.76-17.42 85.08-16.9 85.41-16.38 85.57-15.88 85.73-15.37 85.77-14.93 85.81-14.49 85.81-14.22L85.81-14.22Q85.81-13.82 85.66-13.49 85.5-13.17 85.24-12.94 84.98-12.71 84.63-12.59 84.28-12.46 83.86-12.46L83.86-12.46Q83.54-12.46 83.22-12.59 82.9-12.71 82.65-12.91 82.4-13.11 82.24-13.37 82.08-13.63 82.08-13.9L82.08-13.9Q82.08-15 81.68-15.42 81.29-15.85 80.53-15.85L80.53-15.85Q80.17-15.85 79.83-15.81 79.49-15.77 79.23-15.59 78.97-15.41 78.81-15.04 78.66-14.66 78.66-13.98ZM100.7-18.68L107.48-18.68Q108.01-18.68 108.55-18.64 109.09-18.6 109.53-18.41 109.97-18.22 110.25-17.84 110.52-17.46 110.52-16.78L110.52-16.78Q110.52-16.12 110.25-15.74 109.97-15.36 109.53-15.17 109.09-14.98 108.55-14.94 108.01-14.89 107.48-14.89L107.48-14.89 106.12-14.89 106.12-3.04Q106.12-2.47 106.08-1.92 106.05-1.37 105.86-0.95 105.68-0.52 105.26-0.26 104.85 0 104.09 0L104.09 0Q103.33 0 102.91-0.26 102.5-0.52 102.31-0.95 102.13-1.37 102.09-1.92 102.06-2.47 102.06-3.04L102.06-3.04 102.06-14.89 100.7-14.89Q100.17-14.89 99.63-14.94 99.09-14.98 98.65-15.17 98.2-15.36 97.93-15.74 97.66-16.12 97.66-16.78L97.66-16.78Q97.66-17.46 97.93-17.84 98.2-18.22 98.65-18.41 99.09-18.6 99.63-18.64 100.17-18.68 100.7-18.68L100.7-18.68ZM112.52-3.1L112.52-15.64Q112.52-16.21 112.55-16.76 112.59-17.3 112.77-17.73 112.96-18.16 113.37-18.42 113.77-18.68 114.52-18.68L114.52-18.68 118.92-18.68Q120.56-18.6 121.86-17.98L121.86-17.98Q122.41-17.72 122.93-17.32 123.46-16.93 123.87-16.35 124.29-15.77 124.54-14.98 124.79-14.2 124.79-13.15L124.79-13.15Q124.79-12.94 124.75-12.59 124.71-12.23 124.58-11.81 124.45-11.39 124.22-10.94 123.99-10.49 123.62-10.07 123.25-9.66 122.71-9.31 122.17-8.97 121.43-8.75L121.43-8.75Q121.9-8.57 122.38-8.26 122.86-7.96 123.25-7.5 123.63-7.03 123.88-6.38 124.13-5.72 124.13-4.86L124.13-4.86 124.13-2.96Q124.13-2.8 124.21-2.69 124.29-2.59 124.37-2.51L124.37-2.51Q124.69-2.19 124.74-1.95 124.79-1.72 124.79-1.57L124.79-1.57Q124.79-1.11 124.61-0.79 124.42-0.47 124.12-0.27 123.82-0.07 123.44 0.02 123.06 0.11 122.66 0.11L122.66 0.11Q122.22 0.11 121.77-0.03 121.31-0.17 120.94-0.44 120.56-0.71 120.33-1.11 120.1-1.51 120.1-2.03L120.1-2.03 120.1-4.86Q120.1-5.44 120.02-5.94 119.94-6.43 119.71-6.79 119.48-7.15 119.08-7.35 118.68-7.55 118.04-7.55L118.04-7.55 116.55-7.55 116.55-3.1Q116.55-2.51 116.52-1.95 116.48-1.39 116.3-0.95 116.11-0.52 115.7-0.26 115.28 0 114.52 0L114.52 0Q113.77 0 113.37-0.26 112.96-0.52 112.77-0.95 112.59-1.39 112.55-1.95 112.52-2.51 112.52-3.1L112.52-3.1ZM116.55-10.54L118.36-10.54Q119.03-10.57 119.56-10.86L119.56-10.86Q119.79-10.98 120-11.17 120.22-11.35 120.39-11.63 120.56-11.91 120.66-12.29 120.76-12.66 120.76-13.15L120.76-13.15Q120.76-13.59 120.66-13.93 120.56-14.28 120.4-14.53 120.24-14.78 120.04-14.96 119.83-15.13 119.62-15.24L119.62-15.24Q119.11-15.49 118.47-15.53L118.47-15.53 116.55-15.53 116.55-10.54ZM133.09-15.21L131.12-8.06 135.36-8.06 133.39-15.21 133.09-15.21ZM136.72-16.17L139.5-6.75Q139.52-5.84 139.56-4.9 139.6-3.95 139.6-3.07L139.6-3.07 139.6-2.67Q139.6-2.16 139.57-1.69 139.54-1.21 139.36-0.83 139.19-0.45 138.82-0.23 138.44 0 137.76 0L137.76 0Q137.07 0 136.69-0.23 136.32-0.45 136.14-0.83 135.96-1.2 135.93-1.68 135.89-2.16 135.89-2.67L135.89-2.67 135.89-4.54 130.56-4.54 130.56-2.67Q130.56-2.16 130.52-1.68 130.49-1.2 130.31-0.83 130.13-0.45 129.76-0.23 129.38 0 128.69 0L128.69 0Q128 0 127.62-0.23 127.25-0.45 127.08-0.83 126.9-1.21 126.88-1.69 126.85-2.16 126.85-2.67L126.85-2.67 126.85-3.07Q126.85-3.48 126.86-3.95 126.86-4.42 126.88-4.9 126.89-5.38 126.9-5.85 126.92-6.32 126.93-6.75L126.93-6.75Q127.6-9.07 128.33-11.45 129.06-13.83 129.73-16.17L129.73-16.17Q129.86-16.66 130.05-17.12 130.24-17.58 130.54-17.92 130.85-18.26 131.33-18.47 131.81-18.68 132.56-18.68L132.56-18.68 133.89-18.68Q134.63-18.68 135.11-18.47 135.6-18.26 135.91-17.92 136.21-17.58 136.39-17.12 136.57-16.66 136.72-16.17L136.72-16.17ZM151.85-18.68L151.85-18.68Q152.24-18.68 152.6-18.54 152.96-18.41 153.23-18.18 153.5-17.96 153.66-17.64 153.82-17.33 153.82-16.97L153.82-16.97Q153.82-16.8 153.8-16.64 153.78-16.49 153.76-16.37L153.76-16.37Q153.72-16.22 153.69-16.12L153.69-16.12Q152.78-12.55 151.8-8.85 150.81-5.15 149.9-1.6L149.9-1.6Q149.7-1.15 149.37-0.8L149.37-0.8Q149.09-0.49 148.64-0.25 148.19 0 147.53 0L147.53 0 147.1 0Q146.43 0 145.98-0.25 145.53-0.49 145.25-0.8L145.25-0.8Q144.91-1.15 144.73-1.6L144.73-1.6 140.94-16.12Q140.9-16.22 140.87-16.37L140.87-16.37Q140.8-16.64 140.8-16.97L140.8-16.97Q140.8-17.33 140.96-17.64 141.11-17.96 141.38-18.18 141.64-18.41 142-18.54 142.36-18.68 142.78-18.68L142.78-18.68Q143.42-18.68 143.81-18.4 144.21-18.12 144.43-17.77L144.43-17.77Q144.69-17.37 144.81-16.86L144.81-16.86Q144.97-16.22 145.15-15.42 145.34-14.61 145.53-13.74 145.71-12.87 145.91-11.97 146.1-11.07 146.27-10.23L146.27-10.23Q146.69-8.26 147.1-6.19L147.1-6.19 147.53-6.19Q147.98-8.26 148.41-10.23L148.41-10.23Q148.58-11.07 148.77-11.97 148.97-12.87 149.16-13.74 149.34-14.61 149.52-15.42 149.69-16.22 149.82-16.86L149.82-16.86Q149.96-17.37 150.21-17.77L150.21-17.77Q150.44-18.12 150.82-18.4 151.21-18.68 151.85-18.68ZM157.8-18.68L163.03-18.68Q163.56-18.68 164.11-18.64 164.66-18.6 165.1-18.41 165.54-18.22 165.82-17.84 166.1-17.46 166.1-16.78L166.1-16.78Q166.1-16.1 165.82-15.72 165.54-15.34 165.1-15.16 164.66-14.97 164.11-14.93 163.56-14.89 163.03-14.89L163.03-14.89 159.85-14.89 159.85-11.26 161.54-11.26Q162.07-11.26 162.61-11.23 163.15-11.19 163.57-11.01 163.99-10.83 164.26-10.47 164.52-10.1 164.52-9.45L164.52-9.45Q164.52-8.78 164.26-8.42 163.99-8.06 163.57-7.88 163.15-7.7 162.61-7.66 162.07-7.63 161.54-7.63L161.54-7.63 159.85-7.63 159.85-3.79 163.03-3.79Q163.56-3.79 164.11-3.75 164.66-3.71 165.1-3.53 165.54-3.35 165.82-2.97 166.1-2.59 166.1-1.92L166.1-1.92Q166.1-1.23 165.81-0.84 165.52-0.45 165.08-0.27 164.64-0.08 164.1-0.04 163.55 0 163.03 0L163.03 0 157.8 0Q157.05 0 156.65-0.27 156.24-0.53 156.05-0.97 155.87-1.4 155.83-1.95 155.8-2.49 155.8-3.07L155.8-3.07 155.8-15.61Q155.8-16.18 155.83-16.73 155.87-17.28 156.05-17.71 156.24-18.14 156.65-18.41 157.05-18.68 157.8-18.68L157.8-18.68ZM169.46-1.97L169.46-15.61Q169.46-16.18 169.51-16.73 169.57-17.28 169.77-17.71 169.98-18.14 170.38-18.41 170.78-18.68 171.49-18.68L171.49-18.68Q172.25-18.68 172.68-18.41 173.1-18.14 173.3-17.71 173.5-17.28 173.55-16.73 173.6-16.18 173.6-15.61L173.6-15.61 173.6-3.92 176.21-3.92Q176.76-3.92 177.29-3.87 177.83-3.82 178.25-3.62 178.67-3.42 178.92-3.03 179.17-2.64 179.17-1.97L179.17-1.97Q179.17-1.29 178.92-0.9 178.67-0.51 178.25-0.31 177.83-0.11 177.29-0.05 176.76 0 176.21 0L176.21 0 172.42 0Q171.72 0 171.17-0.05 170.62-0.11 170.24-0.31 169.86-0.51 169.66-0.9 169.46-1.29 169.46-1.97L169.46-1.97Z" transform="translate(-0.9900000095367432, 18.780000686645508)"></path></g> <!----> <!----> <!----> <!----> <!----> <!----> <g data-gra="path-name-1" fill="#feffff" transform="translate(0,21.890003204345703)"><g transform="scale(1.02021)"><path d="M7.72-37.77L15.54-37.77Q17.99-37.77 20.11-37.15 22.23-36.53 23.81-35.3 25.39-34.07 26.29-32.24 27.19-30.4 27.19-27.95L27.19-27.95 27.19-11.22Q27.19-9.12 26.74-7.51 26.28-5.91 25.54-4.73 24.79-3.56 23.85-2.74 22.9-1.92 21.93-1.4L21.93-1.4Q19.61-0.16 16.67 0L16.67 0 7.72 0Q6.18 0 5.34-0.53 4.51-1.05 4.13-1.93 3.75-2.81 3.68-3.91 3.62-5.02 3.62-6.21L3.62-6.21 3.62-31.62Q3.62-32.78 3.68-33.88 3.75-34.99 4.13-35.85 4.51-36.72 5.34-37.24 6.18-37.77 7.72-37.77L7.72-37.77ZM15.32-31.46L11.82-31.46 11.82-6.42 15.32-6.42Q16.48-6.47 17.4-6.96L17.4-6.96Q17.78-7.15 18.16-7.47 18.53-7.8 18.83-8.24 19.13-8.69 19.3-9.31 19.48-9.93 19.48-10.74L19.48-10.74 19.48-26.65Q19.48-27.54 19.3-28.23 19.13-28.92 18.83-29.43 18.53-29.95 18.16-30.3 17.78-30.65 17.4-30.86L17.4-30.86Q16.48-31.38 15.32-31.46L15.32-31.46ZM34.05-6.21L34.05-31.56Q34.05-32.72 34.17-33.83 34.29-34.94 34.73-35.81 35.18-36.69 36.07-37.23 36.96-37.77 38.53-37.77L38.53-37.77Q40.09-37.77 40.98-37.23 41.87-36.69 42.32-35.81 42.76-34.94 42.88-33.83 43-32.72 43-31.56L43-31.56 43-6.21Q43-5.02 42.9-3.91 42.79-2.81 42.34-1.93 41.9-1.05 40.99-0.53 40.09 0 38.53 0L38.53 0Q36.96 0 36.07-0.53 35.18-1.05 34.73-1.93 34.29-2.81 34.17-3.91 34.05-5.02 34.05-6.21L34.05-6.21ZM62.1-30.76L58.11-16.29 66.69-16.29 62.7-30.76 62.1-30.76ZM69.44-32.7L75.05-13.65Q75.11-11.82 75.19-9.9 75.27-7.99 75.27-6.21L75.27-6.21 75.27-5.4Q75.27-4.37 75.2-3.41 75.13-2.46 74.78-1.69 74.43-0.92 73.68-0.46 72.92 0 71.55 0L71.55 0Q70.14 0 69.39-0.46 68.63-0.92 68.27-1.67 67.9-2.43 67.84-3.4 67.77-4.37 67.77-5.4L67.77-5.4 67.77-9.17 56.98-9.17 56.98-5.4Q56.98-4.37 56.91-3.4 56.84-2.43 56.48-1.67 56.12-0.92 55.36-0.46 54.6 0 53.2 0L53.2 0Q51.8 0 51.04-0.46 50.29-0.92 49.94-1.69 49.59-2.46 49.53-3.41 49.48-4.37 49.48-5.4L49.48-5.4 49.48-6.21Q49.48-7.04 49.49-7.99 49.51-8.93 49.53-9.9 49.56-10.87 49.59-11.83 49.61-12.79 49.64-13.65L49.64-13.65Q50.99-18.35 52.47-23.16 53.96-27.98 55.31-32.7L55.31-32.7Q55.58-33.7 55.95-34.63 56.33-35.56 56.95-36.25 57.57-36.93 58.54-37.35 59.51-37.77 61.03-37.77L61.03-37.77 63.72-37.77Q65.21-37.77 66.19-37.35 67.18-36.93 67.8-36.25 68.42-35.56 68.78-34.63 69.15-33.7 69.44-32.7L69.44-32.7ZM81.1-6.26L81.1-31.62Q81.1-32.78 81.16-33.88 81.23-34.99 81.61-35.85 81.99-36.72 82.81-37.24 83.63-37.77 85.14-37.77L85.14-37.77 94.05-37.77Q97.37-37.61 99.98-36.37L99.98-36.37Q101.09-35.83 102.15-35.03 103.22-34.24 104.06-33.06 104.89-31.89 105.4-30.3 105.92-28.71 105.92-26.6L105.92-26.6Q105.92-26.17 105.84-25.45 105.76-24.74 105.49-23.89 105.22-23.04 104.76-22.12 104.3-21.21 103.54-20.37 102.79-19.53 101.7-18.83 100.6-18.13 99.12-17.7L99.12-17.7Q100.06-17.32 101.03-16.71 102.01-16.11 102.79-15.16 103.57-14.22 104.07-12.9 104.57-11.57 104.57-9.82L104.57-9.82 104.57-5.99Q104.57-5.67 104.73-5.45 104.89-5.23 105.05-5.07L105.05-5.07Q105.7-4.42 105.81-3.95 105.92-3.48 105.92-3.18L105.92-3.18Q105.92-2.24 105.54-1.59 105.16-0.94 104.55-0.54 103.95-0.13 103.18 0.04 102.41 0.22 101.6 0.22L101.6 0.22Q100.71 0.22 99.79-0.07 98.88-0.35 98.12-0.89 97.37-1.43 96.89-2.24 96.42-3.05 96.42-4.1L96.42-4.1 96.42-9.82Q96.42-11.01 96.26-12.01 96.1-13 95.64-13.73 95.18-14.46 94.37-14.87 93.56-15.27 92.27-15.27L92.27-15.27 89.24-15.27 89.24-6.26Q89.24-5.07 89.18-3.94 89.11-2.81 88.73-1.93 88.35-1.05 87.52-0.53 86.68 0 85.14 0L85.14 0Q83.63 0 82.81-0.53 81.99-1.05 81.61-1.93 81.23-2.81 81.16-3.94 81.1-5.07 81.1-6.26L81.1-6.26ZM89.24-21.31L92.91-21.31Q94.26-21.37 95.34-21.96L95.34-21.96Q95.8-22.2 96.23-22.58 96.66-22.96 97.01-23.53 97.37-24.09 97.57-24.85 97.77-25.6 97.77-26.6L97.77-26.6Q97.77-27.49 97.57-28.18 97.37-28.87 97.04-29.38 96.72-29.89 96.3-30.24 95.88-30.59 95.45-30.81L95.45-30.81Q94.42-31.32 93.13-31.4L93.13-31.4 89.24-31.4 89.24-21.31ZM112.61-6.21L112.61-31.56Q112.61-32.72 112.73-33.83 112.85-34.94 113.3-35.81 113.74-36.69 114.63-37.23 115.52-37.77 117.09-37.77L117.09-37.77Q118.65-37.77 119.54-37.23 120.43-36.69 120.88-35.81 121.32-34.94 121.44-33.83 121.56-32.72 121.56-31.56L121.56-31.56 121.56-6.21Q121.56-5.02 121.46-3.91 121.35-2.81 120.9-1.93 120.46-1.05 119.55-0.53 118.65 0 117.09 0L117.09 0Q115.52 0 114.63-0.53 113.74-1.05 113.3-1.93 112.85-2.81 112.73-3.91 112.61-5.02 112.61-6.21L112.61-6.21ZM133.87-37.77L144.44-37.77Q145.52-37.77 146.63-37.69 147.73-37.61 148.62-37.23 149.51-36.85 150.08-36.08 150.65-35.31 150.65-33.94L150.65-33.94Q150.65-32.56 150.08-31.79 149.51-31.03 148.62-30.65 147.73-30.27 146.63-30.19 145.52-30.11 144.44-30.11L144.44-30.11 138.02-30.11 138.02-22.77 141.42-22.77Q142.5-22.77 143.59-22.7 144.69-22.63 145.54-22.27 146.38-21.91 146.92-21.16 147.46-20.42 147.46-19.1L147.46-19.1Q147.46-17.75 146.92-17.02 146.38-16.29 145.54-15.93 144.69-15.57 143.59-15.5 142.5-15.43 141.42-15.43L141.42-15.43 138.02-15.43 138.02-7.66 144.44-7.66Q145.52-7.66 146.63-7.58 147.73-7.5 148.62-7.14 149.51-6.77 150.08-6 150.65-5.23 150.65-3.88L150.65-3.88Q150.65-2.48 150.07-1.7 149.49-0.92 148.6-0.54 147.71-0.16 146.6-0.08 145.49 0 144.44 0L144.44 0 133.87 0Q132.36 0 131.53-0.54 130.71-1.08 130.33-1.96 129.96-2.83 129.89-3.94 129.82-5.04 129.82-6.21L129.82-6.21 129.82-31.56Q129.82-32.72 129.89-33.83 129.96-34.94 130.33-35.81 130.71-36.69 131.53-37.23 132.36-37.77 133.87-37.77L133.87-37.77ZM163.38-28.27L163.38-28.27Q163.41-27.14 164.04-26.24 164.68-25.33 165.71-24.52 166.75-23.71 168.08-22.95 169.4-22.18 170.79-21.33 172.18-20.48 173.5-19.48 174.82-18.48 175.87-17.21 176.92-15.94 177.57-14.35 178.22-12.76 178.27-10.74L178.27-10.74 178.27-10.52Q178.27-8.31 177.73-6.66 177.19-5.02 176.3-3.83 175.41-2.64 174.23-1.87 173.04-1.11 171.73-0.65 170.42-0.19 169.09 0 167.75 0.19 166.56 0.22L166.56 0.22 166.29 0.22Q164 0.22 162.28-0.24 160.55-0.7 159.31-1.47 158.07-2.24 157.24-3.24 156.42-4.24 155.94-5.3 155.45-6.37 155.23-7.42 155.02-8.47 155.02-9.39L155.02-9.39Q155.02-10.33 155.34-11.03 155.67-11.74 156.19-12.18 156.72-12.63 157.41-12.84 158.09-13.06 158.85-13.06L158.85-13.06Q159.55-13.06 160.29-12.84 161.03-12.63 161.64-12.18 162.25-11.74 162.64-11.05 163.03-10.36 163.06-9.44L163.06-9.44Q163.11-7.42 163.97-6.68 164.84-5.94 166.46-5.94L166.46-5.94Q167.27-5.96 167.95-6.14 168.64-6.31 169.13-6.76 169.61-7.2 169.9-7.95 170.18-8.69 170.18-9.82L170.18-9.82Q170.18-11.22 169.55-12.36 168.91-13.49 167.89-14.46 166.86-15.43 165.54-16.31 164.22-17.19 162.84-18.06 161.47-18.94 160.16-19.9 158.85-20.85 157.8-21.99 156.74-23.12 156.11-24.5 155.48-25.87 155.45-27.63L155.45-27.63 155.45-28.06Q155.48-30.94 156.22-32.86 156.96-34.78 158.4-35.91 159.85-37.04 161.95-37.51 164.06-37.99 166.78-37.99L166.78-37.99 167.48-37.99Q169.96-37.99 171.69-37.45 173.42-36.91 174.56-36.07 175.71-35.23 176.37-34.18 177.03-33.13 177.36-32.1 177.68-31.08 177.76-30.19 177.84-29.3 177.84-28.76L177.84-28.76Q177.84-27.95 177.53-27.29 177.22-26.63 176.7-26.17 176.17-25.71 175.45-25.45 174.74-25.2 173.9-25.2L173.9-25.2Q173.26-25.2 172.61-25.45 171.96-25.71 171.45-26.12 170.94-26.52 170.61-27.05 170.29-27.57 170.29-28.11L170.29-28.11Q170.29-30.32 169.49-31.19 168.7-32.05 167.16-32.05L167.16-32.05Q166.43-32.05 165.74-31.97 165.05-31.89 164.53-31.52 164-31.16 163.69-30.4 163.38-29.65 163.38-28.27Z" transform="translate(-3.619999885559082, 37.9900016784668)"></path></g></g></g></g> <g data-gra="path-slogan" fill-rule="" class="tp-slogan" transform="translate(23.339996337890625,66.87223434448242)"><!----> <!----> <g transform="scale(1, 1)"><g transform="scale(1)"><path d="M1.08-7.87L1.08 0L5.52 0L5.52-0.85L2.08-0.85L2.08-7.87ZM6.91-7.87L6.91 0L7.91 0L7.91-7.87ZM8.99-7.87L11.51 0L12.67 0L15.17-7.87L14.15-7.87L12.89-3.62C12.75-3.15 12.63-2.72 12.52-2.32C12.40-1.92 12.28-1.48 12.13-1.02L12.08-1.02C11.93-1.48 11.80-1.92 11.69-2.32C11.59-2.72 11.46-3.15 11.32-3.62L10.06-7.87ZM16.25-7.87L16.25 0L17.24 0L17.24-7.87ZM19.40-7.87L19.40 0L20.35 0L20.35-4.12C20.35-4.53 20.34-4.95 20.31-5.36C20.28-5.77 20.25-6.18 20.22-6.58L20.27-6.58L21.12-4.96L23.98 0L25.01 0L25.01-7.87L24.06-7.87L24.06-3.80C24.06-3.39 24.07-2.97 24.10-2.54C24.13-2.11 24.16-1.70 24.18-1.30L24.13-1.30L23.28-2.93L20.44-7.87ZM26.71-3.94C26.71-3.30 26.80-2.72 26.98-2.21C27.15-1.71 27.40-1.28 27.71-0.93C28.02-0.58 28.39-0.32 28.82-0.13C29.26 0.05 29.73 0.14 30.25 0.14C30.78 0.14 31.25 0.06 31.67-0.11C32.09-0.29 32.43-0.50 32.69-0.77L32.69-4.08L30.11-4.08L30.11-3.25L31.78-3.25L31.78-1.20C31.62-1.06 31.41-0.94 31.16-0.86C30.91-0.77 30.64-0.73 30.36-0.73C29.94-0.73 29.56-0.81 29.24-0.96C28.91-1.11 28.64-1.33 28.42-1.61C28.20-1.89 28.03-2.23 27.92-2.62C27.80-3.02 27.74-3.46 27.74-3.96C27.74-4.45 27.81-4.89 27.93-5.28C28.05-5.67 28.23-6.01 28.45-6.28C28.68-6.56 28.95-6.77 29.27-6.92C29.59-7.07 29.95-7.14 30.35-7.14C30.75-7.14 31.08-7.07 31.34-6.93C31.60-6.79 31.83-6.62 32.03-6.41L32.59-7.04C32.36-7.28 32.06-7.51 31.70-7.71C31.33-7.91 30.88-8.02 30.34-8.02C29.81-8.02 29.32-7.92 28.88-7.73C28.44-7.55 28.06-7.28 27.74-6.92C27.41-6.57 27.16-6.14 26.98-5.64C26.80-5.14 26.71-4.57 26.71-3.94ZM36.19-7.87L37.86 0L39.05 0L40.21-4.74C40.28-5.04 40.34-5.34 40.41-5.63C40.48-5.93 40.54-6.22 40.61-6.53L40.66-6.53C40.72-6.22 40.78-5.93 40.84-5.63C40.90-5.34 40.97-5.04 41.04-4.74L42.23 0L43.43 0L45.06-7.87L44.10-7.87L43.27-3.59C43.19-3.16 43.12-2.74 43.04-2.32C42.97-1.90 42.90-1.48 42.83-1.04L42.78-1.04C42.68-1.48 42.59-1.90 42.49-2.33C42.40-2.75 42.30-3.17 42.20-3.59L41.11-7.87L40.20-7.87L39.11-3.59C39.02-3.16 38.93-2.74 38.83-2.32C38.74-1.90 38.64-1.48 38.56-1.04L38.51-1.04C38.44-1.48 38.36-1.90 38.28-2.32C38.20-2.73 38.12-3.16 38.05-3.59L37.22-7.87ZM46.43-7.87L46.43 0L47.42 0L47.42-7.87ZM51.22-7.03L51.22 0L52.22 0L52.22-7.03L54.60-7.03L54.60-7.87L48.84-7.87L48.84-7.03ZM56.02-7.87L56.02 0L57.01 0L57.01-3.71L60.67-3.71L60.67 0L61.68 0L61.68-7.87L60.67-7.87L60.67-4.57L57.01-4.57L57.01-7.87ZM66.74 0.14C67.24 0.14 67.69 0.05 68.11-0.14C68.52-0.34 68.87-0.61 69.17-0.97C69.47-1.32 69.71-1.75 69.87-2.26C70.03-2.77 70.12-3.34 70.12-3.97C70.12-4.60 70.03-5.16 69.87-5.66C69.71-6.16 69.47-6.58 69.17-6.93C68.87-7.28 68.52-7.55 68.11-7.73C67.69-7.92 67.24-8.02 66.74-8.02C66.25-8.02 65.79-7.92 65.38-7.74C64.97-7.56 64.62-7.29 64.32-6.94C64.02-6.59 63.79-6.17 63.63-5.67C63.47-5.17 63.38-4.60 63.38-3.97C63.38-3.34 63.47-2.77 63.63-2.26C63.79-1.75 64.02-1.32 64.32-0.97C64.62-0.61 64.97-0.34 65.38-0.14C65.79 0.05 66.25 0.14 66.74 0.14ZM66.74-0.73C66.39-0.73 66.07-0.81 65.79-0.96C65.51-1.11 65.26-1.33 65.06-1.61C64.85-1.90 64.70-2.24 64.58-2.63C64.47-3.03 64.42-3.48 64.42-3.97C64.42-4.46 64.47-4.90 64.58-5.29C64.70-5.68 64.85-6.02 65.06-6.29C65.26-6.56 65.51-6.77 65.79-6.92C66.07-7.07 66.39-7.14 66.74-7.14C67.10-7.14 67.41-7.07 67.70-6.92C67.98-6.77 68.23-6.56 68.43-6.29C68.63-6.02 68.79-5.68 68.90-5.29C69.02-4.90 69.07-4.46 69.07-3.97C69.07-3.48 69.02-3.03 68.90-2.63C68.79-2.24 68.63-1.90 68.43-1.61C68.23-1.33 67.98-1.11 67.70-0.96C67.41-0.81 67.10-0.73 66.74-0.73ZM71.77-7.87L71.77-3.25C71.77-2.62 71.84-2.09 71.99-1.66C72.13-1.22 72.33-0.87 72.58-0.61C72.83-0.34 73.13-0.15 73.48-0.03C73.83 0.09 74.20 0.14 74.60 0.14C75.00 0.14 75.38 0.09 75.72-0.03C76.06-0.15 76.36-0.34 76.61-0.61C76.87-0.87 77.06-1.22 77.21-1.66C77.35-2.09 77.42-2.62 77.42-3.25L77.42-7.87L76.46-7.87L76.46-3.23C76.46-2.76 76.42-2.36 76.32-2.04C76.22-1.72 76.09-1.46 75.92-1.27C75.76-1.08 75.56-0.94 75.34-0.86C75.11-0.77 74.87-0.73 74.60-0.73C74.35-0.73 74.11-0.77 73.88-0.86C73.66-0.94 73.47-1.08 73.30-1.27C73.14-1.46 73.01-1.72 72.91-2.04C72.82-2.36 72.77-2.76 72.77-3.23L72.77-7.87ZM81.18-7.03L81.18 0L82.19 0L82.19-7.03L84.56-7.03L84.56-7.87L78.80-7.87L78.80-7.03ZM88.40-7.87L88.40 0L93.06 0L93.06-0.85L89.40-0.85L89.40-3.71L92.39-3.71L92.39-4.56L89.40-4.56L89.40-7.03L92.94-7.03L92.94-7.87ZM96.12-4.07L93.83 0L94.88 0L96.02-2.12C96.12-2.32 96.22-2.51 96.32-2.72C96.43-2.92 96.54-3.14 96.65-3.38L96.70-3.38C96.82-3.14 96.94-2.92 97.05-2.72C97.16-2.51 97.26-2.32 97.37-2.12L98.52 0L99.62 0L97.33-4.02L99.48-7.87L98.42-7.87L97.38-5.86C97.28-5.67 97.19-5.49 97.11-5.32C97.03-5.15 96.93-4.95 96.82-4.72L96.77-4.72C96.65-4.95 96.54-5.15 96.45-5.32C96.36-5.49 96.26-5.67 96.16-5.86L95.09-7.87L93.98-7.87ZM100.22-3.94C100.22-3.30 100.31-2.72 100.48-2.21C100.65-1.71 100.89-1.28 101.20-0.93C101.51-0.58 101.87-0.32 102.29-0.13C102.71 0.05 103.17 0.14 103.67 0.14C104.17 0.14 104.62 0.04 105.01-0.16C105.40-0.36 105.76-0.64 106.07-1.00L105.50-1.61C105.25-1.33 104.98-1.11 104.69-0.96C104.41-0.81 104.08-0.73 103.69-0.73C103.32-0.73 102.98-0.81 102.68-0.96C102.38-1.11 102.12-1.33 101.92-1.61C101.71-1.89 101.55-2.23 101.43-2.62C101.31-3.02 101.26-3.46 101.26-3.96C101.26-4.45 101.32-4.89 101.44-5.28C101.56-5.67 101.72-6.01 101.94-6.28C102.16-6.56 102.42-6.77 102.72-6.92C103.02-7.07 103.36-7.14 103.74-7.14C104.08-7.14 104.37-7.07 104.62-6.94C104.87-6.81 105.10-6.63 105.31-6.41L105.88-7.04C105.64-7.30 105.35-7.53 104.99-7.72C104.63-7.92 104.21-8.02 103.73-8.02C103.22-8.02 102.76-7.92 102.33-7.73C101.90-7.55 101.53-7.28 101.22-6.92C100.91-6.57 100.66-6.14 100.49-5.64C100.31-5.14 100.22-4.57 100.22-3.94ZM107.33-7.87L107.33-3.25C107.33-2.62 107.40-2.09 107.54-1.66C107.69-1.22 107.89-0.87 108.14-0.61C108.39-0.34 108.69-0.15 109.04-0.03C109.39 0.09 109.76 0.14 110.16 0.14C110.56 0.14 110.93 0.09 111.28-0.03C111.62-0.15 111.92-0.34 112.17-0.61C112.42-0.87 112.62-1.22 112.76-1.66C112.91-2.09 112.98-2.62 112.98-3.25L112.98-7.87L112.02-7.87L112.02-3.23C112.02-2.76 111.97-2.36 111.88-2.04C111.78-1.72 111.65-1.46 111.48-1.27C111.31-1.08 111.12-0.94 110.89-0.86C110.67-0.77 110.42-0.73 110.16-0.73C109.90-0.73 109.66-0.77 109.44-0.86C109.22-0.94 109.02-1.08 108.86-1.27C108.69-1.46 108.56-1.72 108.47-2.04C108.37-2.36 108.32-2.76 108.32-3.23L108.32-7.87ZM115.01-1.72L114.41-1.02C114.75-0.66 115.16-0.38 115.63-0.17C116.10 0.04 116.62 0.14 117.17 0.14C117.58 0.14 117.96 0.09 118.28-0.03C118.61-0.15 118.89-0.31 119.12-0.51C119.36-0.71 119.53-0.95 119.66-1.22C119.78-1.50 119.84-1.79 119.84-2.10C119.84-2.39 119.80-2.64 119.72-2.86C119.63-3.08 119.52-3.27 119.38-3.44C119.23-3.60 119.06-3.75 118.86-3.87C118.66-3.99 118.45-4.10 118.22-4.20L117.11-4.68C116.95-4.74 116.79-4.81 116.64-4.89C116.49-4.97 116.35-5.05 116.22-5.15C116.09-5.25 115.99-5.37 115.91-5.50C115.84-5.63 115.80-5.80 115.80-5.99C115.80-6.35 115.93-6.63 116.20-6.83C116.47-7.04 116.82-7.14 117.26-7.14C117.63-7.14 117.96-7.07 118.25-6.94C118.55-6.81 118.81-6.63 119.05-6.40L119.59-7.04C119.31-7.33 118.97-7.57 118.57-7.75C118.17-7.93 117.74-8.02 117.26-8.02C116.90-8.02 116.57-7.96 116.27-7.86C115.97-7.76 115.71-7.61 115.49-7.42C115.27-7.23 115.10-7.01 114.98-6.76C114.85-6.50 114.79-6.22 114.79-5.93C114.79-5.64 114.84-5.39 114.94-5.17C115.03-4.95 115.16-4.76 115.31-4.60C115.46-4.44 115.63-4.30 115.82-4.19C116.02-4.08 116.20-3.98 116.39-3.90L117.52-3.41C117.70-3.32 117.87-3.24 118.03-3.16C118.19-3.08 118.33-2.99 118.45-2.89C118.56-2.79 118.65-2.67 118.72-2.53C118.79-2.39 118.82-2.22 118.82-2.02C118.82-1.63 118.68-1.32 118.39-1.09C118.10-0.85 117.70-0.73 117.18-0.73C116.77-0.73 116.38-0.82 116.00-1.00C115.62-1.18 115.29-1.42 115.01-1.72ZM121.39-7.87L121.39 0L126.05 0L126.05-0.85L122.39-0.85L122.39-3.71L125.38-3.71L125.38-4.56L122.39-4.56L122.39-7.03L125.93-7.03L125.93-7.87ZM127.74-1.72L127.14-1.02C127.48-0.66 127.89-0.38 128.36-0.17C128.84 0.04 129.35 0.14 129.90 0.14C130.32 0.14 130.69 0.09 131.02-0.03C131.34-0.15 131.62-0.31 131.86-0.51C132.09-0.71 132.27-0.95 132.39-1.22C132.51-1.50 132.58-1.79 132.58-2.10C132.58-2.39 132.53-2.64 132.45-2.86C132.37-3.08 132.25-3.27 132.11-3.44C131.96-3.60 131.79-3.75 131.59-3.87C131.39-3.99 131.18-4.10 130.96-4.20L129.84-4.68C129.68-4.74 129.52-4.81 129.37-4.89C129.22-4.97 129.08-5.05 128.95-5.15C128.82-5.25 128.72-5.37 128.65-5.50C128.57-5.63 128.53-5.80 128.53-5.99C128.53-6.35 128.67-6.63 128.93-6.83C129.20-7.04 129.56-7.14 130.00-7.14C130.36-7.14 130.69-7.07 130.99-6.94C131.28-6.81 131.54-6.63 131.78-6.40L132.32-7.04C132.04-7.33 131.70-7.57 131.30-7.75C130.90-7.93 130.47-8.02 130.00-8.02C129.64-8.02 129.31-7.96 129.01-7.86C128.71-7.76 128.45-7.61 128.23-7.42C128.01-7.23 127.83-7.01 127.71-6.76C127.59-6.50 127.52-6.22 127.52-5.93C127.52-5.64 127.57-5.39 127.67-5.17C127.76-4.95 127.89-4.76 128.04-4.60C128.19-4.44 128.36-4.30 128.56-4.19C128.75-4.08 128.94-3.98 129.12-3.90L130.25-3.41C130.43-3.32 130.60-3.24 130.76-3.16C130.92-3.08 131.06-2.99 131.18-2.89C131.29-2.79 131.39-2.67 131.45-2.53C131.52-2.39 131.56-2.22 131.56-2.02C131.56-1.63 131.41-1.32 131.12-1.09C130.84-0.85 130.43-0.73 129.91-0.73C129.50-0.73 129.11-0.82 128.73-1.00C128.35-1.18 128.02-1.42 127.74-1.72Z" transform="translate(-1.08, 8.016)"></path></g></g></g></g></g></g><defs v-gra="od"></defs></svg>