<svg data-v-0dd9719b="" version="1.0" xmlns="http://www.w3.org/2000/svg" xmlns:xlink="http://www.w3.org/1999/xlink" width="100%" height="100%" viewBox="0 0 340.000000 250.000000" preserveAspectRatio="xMidYMid meet" color-interpolation-filters="sRGB" style="margin: auto;"> <rect data-v-0dd9719b="" x="0" y="0" width="100%" height="100%" fill="#fff" fill-opacity="1" class="background"></rect> <!----> <g data-v-0dd9719b="" fill="#333" class="icon-text-wrapper icon-svg-group iconsvg" transform="translate(71.5548095703125,93.54686546325684)"><g class="iconsvg-imagesvg" transform="translate(0,0)"><g><rect fill="#333" fill-opacity="0" stroke-width="2" x="0" y="0" width="60" height="62.90626965820927" class="image-rect"></rect> <svg x="0" y="0" width="60" height="62.90626965820927" filtersec="colorsb4326744264" class="image-svg-svg primary" style="overflow: visible;"><svg xmlns="http://www.w3.org/2000/svg" viewBox="0 0 95.3800048828125 100"><title>资源 245</title><path fill="#b6232a" d="M47.69 38.05L73.41 82.6h21.97L47.69 0 0 82.6h21.97l25.72-44.55z"></path><path fill="#333" d="M47.81 61.66L25.67 100h44.27L47.81 61.66z"></path></svg></svg> <!----></g></g> <g transform="translate(67,4.902307510375977)"><g data-gra="path-name" fill-rule="" class="tp-name iconsvg-namesvg" transform="translate(0,0)"><g transform="scale(1)"><g><path d="M6.06-11.7L6.06-11.7 10.07-1.38Q10.3-0.79 10.59-0.57 10.88-0.35 11.11-0.33L11.11-0.33 11.11 0Q10.61-0.03 9.95-0.04 9.28-0.05 8.6-0.05L8.6-0.05Q7.84-0.05 7.17-0.04 6.49-0.03 6.1 0L6.1 0 6.1-0.33Q6.94-0.36 7.16-0.62 7.38-0.87 7.05-1.71L7.05-1.71 4.25-9.38 4.55-9.81 2.04-3.28Q1.58-2.06 1.59-1.43 1.6-0.81 1.99-0.59 2.39-0.36 3.05-0.33L3.05-0.33 3.05 0Q2.51-0.03 2.01-0.04 1.52-0.05 1.01-0.05L1.01-0.05Q0.64-0.05 0.32-0.04 0-0.03-0.25 0L-0.25 0-0.25-0.33Q0.1-0.4 0.46-0.77 0.82-1.15 1.17-2.06L1.17-2.06 4.93-11.7Q5.19-11.68 5.5-11.68 5.8-11.68 6.06-11.7ZM2.47-4.75L7.22-4.75 7.22-4.42 2.31-4.42 2.47-4.75ZM11.22-11.34L11.22-11.67Q11.64-11.65 12.34-11.64 13.04-11.62 13.73-11.62L13.73-11.62Q14.52-11.62 15.26-11.64 16-11.65 16.32-11.65L16.32-11.65Q18.61-11.65 19.74-10.9 20.88-10.15 20.88-8.78L20.88-8.78Q20.88-8.22 20.65-7.66 20.42-7.09 19.87-6.6 19.32-6.11 18.36-5.83 17.4-5.54 15.95-5.54L15.95-5.54 14.37-5.54 14.37-5.87 15.79-5.87Q16.76-5.87 17.26-6.24 17.77-6.61 17.96-7.23 18.15-7.84 18.15-8.6L18.15-8.6Q18.15-9.9 17.68-10.62 17.22-11.34 16.1-11.34L16.1-11.34Q15.46-11.34 15.27-11.06 15.08-10.78 15.08-9.92L15.08-9.92 15.08-1.75Q15.08-1.15 15.17-0.86 15.26-0.56 15.52-0.46 15.79-0.36 16.32-0.33L16.32-0.33 16.32 0Q15.87-0.03 15.2-0.04 14.52-0.05 13.83-0.05L13.83-0.05Q13.04-0.05 12.34-0.04 11.64-0.03 11.22 0L11.22 0 11.22-0.33Q11.75-0.36 12.01-0.46 12.28-0.56 12.37-0.86 12.46-1.15 12.46-1.75L12.46-1.75 12.46-9.92Q12.46-10.53 12.37-10.82 12.28-11.11 12.01-11.22 11.73-11.32 11.22-11.34L11.22-11.34ZM14.37-5.54L14.34-5.82Q15.05-5.8 15.57-5.75 16.09-5.7 16.48-5.66 16.88-5.62 17.19-5.6L17.19-5.6Q18.69-5.47 19.41-4.96 20.12-4.45 20.34-3.43L20.34-3.43 20.72-1.73Q20.86-1.07 21.03-0.81 21.19-0.54 21.51-0.54L21.51-0.54Q21.72-0.56 21.86-0.65 22-0.74 22.17-0.92L22.17-0.92 22.4-0.73Q21.95-0.21 21.44 0.01 20.93 0.23 20.21 0.23L20.21 0.23Q19.32 0.23 18.74-0.15 18.16-0.53 17.98-1.55L17.98-1.55 17.68-3.2Q17.57-3.89 17.4-4.41 17.24-4.93 16.95-5.23 16.66-5.54 16.15-5.54L16.15-5.54 14.37-5.54ZM22.63-11.34L22.63-11.67Q23.04-11.65 23.74-11.64 24.44-11.62 25.13-11.62L25.13-11.62Q25.92-11.62 26.67-11.64 27.41-11.65 27.72-11.65L27.72-11.65Q30.01-11.65 31.15-10.75 32.29-9.84 32.29-8.41L32.29-8.41Q32.29-7.81 32.06-7.16 31.82-6.51 31.27-5.96 30.72-5.41 29.76-5.06 28.81-4.71 27.36-4.71L27.36-4.71 25.68-4.71 25.68-5.04 27.19-5.04Q28.17-5.04 28.67-5.49 29.17-5.93 29.36-6.66 29.55-7.38 29.55-8.22L29.55-8.22Q29.55-9.79 29.09-10.56 28.63-11.34 27.51-11.34L27.51-11.34Q26.86-11.34 26.67-11.06 26.48-10.78 26.48-9.92L26.48-9.92 26.48-1.85Q26.48-1.2 26.62-0.89 26.75-0.58 27.13-0.48 27.51-0.38 28.25-0.36L28.25-0.36 28.25 0Q27.74-0.02 26.93-0.03 26.12-0.05 25.23-0.05L25.23-0.05Q24.52-0.05 23.85-0.03 23.17-0.02 22.63 0L22.63 0 22.63-0.33Q23.16-0.36 23.42-0.46 23.68-0.56 23.77-0.86 23.86-1.15 23.86-1.75L23.86-1.75 23.86-9.92Q23.86-10.53 23.77-10.82 23.68-11.11 23.41-11.22 23.14-11.32 22.63-11.34L22.63-11.34ZM38.2-11.67L38.2-11.67 38.2-11.34Q37.67-11.32 37.4-11.22 37.13-11.11 37.05-10.82 36.97-10.53 36.97-9.92L36.97-9.92 36.97-1.75Q36.97-1.15 37.06-0.86 37.15-0.56 37.41-0.46 37.67-0.36 38.2-0.33L38.2-0.33 38.2 0Q37.76-0.03 37.08-0.04 36.41-0.05 35.71-0.05L35.71-0.05Q34.91-0.05 34.22-0.04 33.54-0.03 33.11 0L33.11 0 33.11-0.33Q33.64-0.36 33.9-0.46 34.16-0.56 34.26-0.86 34.35-1.15 34.35-1.75L34.35-1.75 34.35-9.92Q34.35-10.53 34.26-10.82 34.16-11.11 33.89-11.22 33.62-11.32 33.11-11.34L33.11-11.34 33.11-11.67Q33.54-11.65 34.22-11.64 34.91-11.62 35.71-11.62L35.71-11.62Q36.41-11.62 37.08-11.64 37.76-11.65 38.2-11.67ZM49.33-11.67L49.33-11.67Q49.26-10.83 49.24-10.05 49.21-9.28 49.21-8.87L49.21-8.87Q49.21-8.5 49.23-8.17 49.24-7.84 49.26-7.61L49.26-7.61 48.88-7.61Q48.62-9 48.21-9.81 47.81-10.61 47.25-10.95 46.69-11.29 45.93-11.29L45.93-11.29 45.55-11.29 45.55-1.88Q45.55-1.22 45.69-0.89 45.83-0.56 46.21-0.45 46.59-0.35 47.32-0.33L47.32-0.33 47.32 0Q46.81-0.02 45.96-0.03 45.11-0.05 44.18-0.05L44.18-0.05Q43.28-0.05 42.47-0.03 41.66-0.02 41.17 0L41.17 0 41.17-0.33Q41.91-0.35 42.29-0.45 42.67-0.56 42.8-0.89 42.93-1.22 42.93-1.88L42.93-1.88 42.93-11.29 42.57-11.29Q41.81-11.29 41.25-10.95 40.69-10.61 40.3-9.81 39.9-9.01 39.6-7.61L39.6-7.61 39.22-7.61Q39.26-7.84 39.27-8.17 39.27-8.5 39.27-8.87L39.27-8.87Q39.27-9.28 39.25-10.05 39.22-10.83 39.16-11.67L39.16-11.67Q39.92-11.65 40.81-11.64 41.71-11.62 42.62-11.62 43.53-11.62 44.25-11.62L44.25-11.62Q44.99-11.62 45.89-11.62 46.79-11.62 47.7-11.64 48.6-11.65 49.33-11.67ZM51.49-12.03L51.49-12.03Q51.93-12.03 52.23-11.74 52.52-11.45 52.52-10.94L52.52-10.94Q52.52-10.45 52.38-10.02 52.24-9.59 52.04-9.06 51.83-8.54 51.6-7.71L51.6-7.71 51.37-7.71Q51.16-8.5 50.93-9.03 50.71-9.56 50.58-10 50.45-10.43 50.45-10.93L50.45-10.93Q50.45-11.44 50.74-11.73 51.04-12.03 51.49-12.03ZM57.88-11.88L57.88-11.88Q58.85-11.88 59.38-11.68 59.91-11.47 60.29-11.24L60.29-11.24Q60.48-11.12 60.61-11.07 60.73-11.01 60.85-11.01L60.85-11.01Q61.11-11.01 61.21-11.73L61.21-11.73 61.59-11.73Q61.57-11.42 61.55-10.98 61.52-10.55 61.51-9.84 61.51-9.13 61.51-7.98L61.51-7.98 61.13-7.98Q61.06-8.83 60.73-9.64 60.4-10.45 59.8-10.97 59.2-11.49 58.33-11.49L58.33-11.49Q57.53-11.49 57.02-11.04 56.51-10.6 56.51-9.81L56.51-9.81Q56.51-9.15 56.84-8.68 57.17-8.21 57.81-7.76 58.44-7.32 59.35-6.69L59.35-6.69Q60.14-6.18 60.76-5.67 61.39-5.16 61.77-4.52 62.15-3.87 62.15-2.98L62.15-2.98Q62.15-1.9 61.58-1.19 61.01-0.48 60.09-0.12 59.17 0.23 58.06 0.23L58.06 0.23Q57.04 0.23 56.43 0.03 55.82-0.16 55.41-0.38L55.41-0.38Q55.05-0.61 54.85-0.61L54.85-0.61Q54.58-0.61 54.49 0.12L54.49 0.12 54.11 0.12Q54.14-0.28 54.15-0.81 54.16-1.33 54.16-2.18 54.17-3.03 54.17-4.33L54.17-4.33 54.55-4.33Q54.62-3.25 54.92-2.3 55.23-1.35 55.86-0.77 56.5-0.2 57.55-0.2L57.55-0.2Q58.41-0.2 59-0.66 59.59-1.12 59.59-2.04L59.59-2.04Q59.59-3.07 58.9-3.73 58.21-4.4 57.12-5.11L57.12-5.11Q56.35-5.62 55.67-6.13 55-6.64 54.59-7.3 54.19-7.96 54.19-8.87L54.19-8.87Q54.19-9.9 54.71-10.57 55.23-11.24 56.08-11.56 56.92-11.88 57.88-11.88ZM76.87-11.67L76.87-11.67Q76.8-10.83 76.78-10.05 76.75-9.28 76.75-8.87L76.75-8.87Q76.75-8.5 76.77-8.17 76.78-7.84 76.8-7.61L76.8-7.61 76.42-7.61Q76.16-9 75.75-9.81 75.35-10.61 74.79-10.95 74.23-11.29 73.47-11.29L73.47-11.29 73.09-11.29 73.09-1.88Q73.09-1.22 73.23-0.89 73.37-0.56 73.75-0.45 74.13-0.35 74.86-0.33L74.86-0.33 74.86 0Q74.34-0.02 73.5-0.03 72.65-0.05 71.72-0.05L71.72-0.05Q70.82-0.05 70.01-0.03 69.2-0.02 68.71 0L68.71 0 68.71-0.33Q69.45-0.35 69.83-0.45 70.21-0.56 70.34-0.89 70.47-1.22 70.47-1.88L70.47-1.88 70.47-11.29 70.11-11.29Q69.35-11.29 68.79-10.95 68.23-10.61 67.83-9.81 67.44-9.01 67.14-7.61L67.14-7.61 66.76-7.61Q66.8-7.84 66.8-8.17 66.81-8.5 66.81-8.87L66.81-8.87Q66.81-9.28 66.79-10.05 66.76-10.83 66.7-11.67L66.7-11.67Q67.46-11.65 68.35-11.64 69.25-11.62 70.16-11.62 71.06-11.62 71.79-11.62L71.79-11.62Q72.53-11.62 73.43-11.62 74.33-11.62 75.23-11.64 76.14-11.65 76.87-11.67ZM77.85-11.34L77.85-11.67Q78.27-11.65 78.97-11.64 79.67-11.62 80.36-11.62L80.36-11.62Q81.15-11.62 81.89-11.64 82.63-11.65 82.95-11.65L82.95-11.65Q85.24-11.65 86.38-10.9 87.51-10.15 87.51-8.78L87.51-8.78Q87.51-8.22 87.28-7.66 87.05-7.09 86.5-6.6 85.95-6.11 84.99-5.83 84.04-5.54 82.58-5.54L82.58-5.54 81-5.54 81-5.87 82.42-5.87Q83.39-5.87 83.9-6.24 84.4-6.61 84.59-7.23 84.78-7.84 84.78-8.6L84.78-8.6Q84.78-9.9 84.32-10.62 83.85-11.34 82.73-11.34L82.73-11.34Q82.09-11.34 81.9-11.06 81.71-10.78 81.71-9.92L81.71-9.92 81.71-1.75Q81.71-1.15 81.8-0.86 81.89-0.56 82.16-0.46 82.42-0.36 82.95-0.33L82.95-0.33 82.95 0Q82.5-0.03 81.83-0.04 81.15-0.05 80.46-0.05L80.46-0.05Q79.67-0.05 78.97-0.04 78.27-0.03 77.85 0L77.85 0 77.85-0.33Q78.38-0.36 78.65-0.46 78.91-0.56 79-0.86 79.09-1.15 79.09-1.75L79.09-1.75 79.09-9.92Q79.09-10.53 79-10.82 78.91-11.11 78.64-11.22 78.37-11.32 77.85-11.34L77.85-11.34ZM81-5.54L80.97-5.82Q81.68-5.8 82.2-5.75 82.72-5.7 83.11-5.66 83.51-5.62 83.82-5.6L83.82-5.6Q85.32-5.47 86.04-4.96 86.75-4.45 86.97-3.43L86.97-3.43 87.35-1.73Q87.5-1.07 87.66-0.81 87.83-0.54 88.14-0.54L88.14-0.54Q88.35-0.56 88.49-0.65 88.63-0.74 88.8-0.92L88.8-0.92 89.03-0.73Q88.58-0.21 88.07 0.01 87.56 0.23 86.84 0.23L86.84 0.23Q85.95 0.23 85.37-0.15 84.79-0.53 84.61-1.55L84.61-1.55 84.32-3.2Q84.2-3.89 84.04-4.41 83.87-4.93 83.58-5.23 83.29-5.54 82.78-5.54L82.78-5.54 81-5.54ZM94.76-11.7L94.76-11.7 98.77-1.38Q99-0.79 99.29-0.57 99.58-0.35 99.81-0.33L99.81-0.33 99.81 0Q99.31-0.03 98.65-0.04 97.98-0.05 97.3-0.05L97.3-0.05Q96.54-0.05 95.87-0.04 95.19-0.03 94.8 0L94.8 0 94.8-0.33Q95.64-0.36 95.86-0.62 96.08-0.87 95.75-1.71L95.75-1.71 92.95-9.38 93.25-9.81 90.74-3.28Q90.28-2.06 90.29-1.43 90.3-0.81 90.69-0.59 91.09-0.36 91.75-0.33L91.75-0.33 91.75 0Q91.2-0.03 90.71-0.04 90.22-0.05 89.7-0.05L89.7-0.05Q89.34-0.05 89.02-0.04 88.7-0.03 88.45 0L88.45 0 88.45-0.33Q88.8-0.4 89.16-0.77 89.52-1.15 89.87-2.06L89.87-2.06 93.63-11.7Q93.89-11.68 94.2-11.68 94.5-11.68 94.76-11.7ZM91.17-4.75L95.92-4.75 95.92-4.42 91.01-4.42 91.17-4.75ZM109.65-11.67L109.65-11.67 109.65-11.34Q109.28-11.21 108.88-10.76 108.48-10.32 108.13-9.38L108.13-9.38 104.65 0.03Q104.52 0.02 104.37 0.02 104.22 0.02 104.08 0.02L104.08 0.02Q103.94 0.02 103.8 0.02 103.65 0.02 103.52 0.03L103.52 0.03 99.31-10.28Q99.08-10.88 98.8-11.1 98.52-11.32 98.27-11.34L98.27-11.34 98.27-11.67Q98.77-11.65 99.44-11.64 100.1-11.62 100.78-11.62L100.78-11.62Q101.54-11.62 102.21-11.64 102.87-11.65 103.28-11.67L103.28-11.67 103.28-11.34Q102.48-11.31 102.23-11.07 101.98-10.83 102.33-9.95L102.33-9.95 105.33-2.32 104.98-1.91 107.26-8.04Q107.7-9.28 107.72-9.99 107.73-10.7 107.37-11.01 107.01-11.32 106.33-11.34L106.33-11.34 106.33-11.67Q106.89-11.65 107.39-11.64 107.88-11.62 108.39-11.62L108.39-11.62Q108.76-11.62 109.08-11.64 109.4-11.65 109.65-11.67ZM118.86-11.67L118.86-11.67Q118.79-10.94 118.77-10.27 118.74-9.59 118.74-9.23L118.74-9.23Q118.74-8.9 118.76-8.6 118.78-8.31 118.79-8.11L118.79-8.11 118.41-8.11Q118.25-9.31 117.9-10.01 117.56-10.71 117-11 116.45-11.29 115.71-11.29L115.71-11.29 115.04-11.29Q114.54-11.29 114.3-11.21 114.06-11.12 113.98-10.89 113.9-10.65 113.9-10.12L113.9-10.12 113.9-1.55Q113.9-1.04 113.98-0.79 114.06-0.54 114.3-0.46 114.54-0.38 115.04-0.38L115.04-0.38 115.84-0.38Q116.58-0.38 117.15-0.7 117.72-1.02 118.13-1.8 118.53-2.57 118.74-3.89L118.74-3.89 119.12-3.89Q119.07-3.36 119.07-2.51L119.07-2.51Q119.07-2.13 119.09-1.43 119.11-0.74 119.19 0L119.19 0Q118.35-0.03 117.29-0.04 116.24-0.05 115.41-0.05L115.41-0.05Q114.85-0.05 113.93-0.05 113.01-0.05 111.97-0.04 110.93-0.03 110.04 0L110.04 0 110.04-0.33Q110.57-0.36 110.83-0.46 111.1-0.56 111.19-0.86 111.28-1.15 111.28-1.75L111.28-1.75 111.28-9.92Q111.28-10.53 111.19-10.82 111.1-11.11 110.82-11.22 110.55-11.32 110.04-11.34L110.04-11.34 110.04-11.67Q110.93-11.65 111.97-11.64 113.01-11.62 113.93-11.62 114.85-11.62 115.41-11.62L115.41-11.62Q116.17-11.62 117.14-11.63 118.1-11.64 118.86-11.67ZM113.4-6.03L116.29-6.03Q116.29-6.03 116.29-5.87 116.29-5.7 116.29-5.7L116.29-5.7 113.4-5.7Q113.4-5.7 113.4-5.87 113.4-6.03 113.4-6.03L113.4-6.03ZM116.39-8.21L116.77-8.21Q116.7-7.27 116.71-6.77 116.72-6.28 116.72-5.87L116.72-5.87Q116.72-5.46 116.73-4.96 116.75-4.47 116.82-3.53L116.82-3.53 116.44-3.53Q116.35-4.1 116.13-4.6 115.91-5.09 115.5-5.4 115.08-5.7 114.43-5.7L114.43-5.7 114.43-6.03Q115.08-6.03 115.48-6.39 115.88-6.76 116.09-7.26 116.3-7.76 116.39-8.21L116.39-8.21ZM125.68-11.67L125.68-11.67 125.68-11.34Q125.12-11.32 124.83-11.22 124.54-11.11 124.45-10.82 124.35-10.53 124.35-9.92L124.35-9.92 124.35-1.55Q124.35-1.04 124.42-0.79 124.5-0.54 124.72-0.46 124.94-0.38 125.39-0.38L125.39-0.38 126.19-0.38Q126.95-0.38 127.57-0.84 128.19-1.3 128.61-2.13 129.03-2.97 129.19-4.05L129.19-4.05 129.57-4.05Q129.52-3.49 129.52-2.6L129.52-2.6Q129.52-2.22 129.54-1.5 129.56-0.77 129.64 0L129.64 0Q128.8-0.03 127.74-0.04 126.69-0.05 125.86-0.05L125.86-0.05Q125.3-0.05 124.38-0.05 123.46-0.05 122.42-0.04 121.38-0.03 120.49 0L120.49 0 120.49-0.33Q121.02-0.36 121.28-0.46 121.55-0.56 121.64-0.86 121.73-1.15 121.73-1.75L121.73-1.75 121.73-9.92Q121.73-10.53 121.64-10.82 121.55-11.11 121.27-11.22 121-11.32 120.49-11.34L120.49-11.34 120.49-11.67Q120.9-11.65 121.6-11.64 122.3-11.62 123.09-11.62L123.09-11.62Q123.82-11.62 124.52-11.64 125.22-11.65 125.68-11.67Z" transform="translate(0.25, 12.029999732971191)"></path></g> <!----> <!----> <!----> <!----> <!----> <!----> <g data-gra="path-name-1" fill="#333" transform="translate(0,15.260000228881836)"><g transform="scale(1.01787)"><path d="M10.94-22.58L10.94-22.58Q17.22-22.58 20.28-19.73 23.35-16.87 23.35-11.55L23.35-11.55Q23.35-8.07 21.85-5.47 20.35-2.87 17.49-1.44 14.64 0 10.65 0L10.65 0Q9.89 0 8.47-0.05 7.05-0.1 6-0.1L6-0.1Q4.59-0.1 3.24-0.08 1.88-0.06 1.08 0L1.08 0 1.08-0.64Q2.11-0.7 2.62-0.89 3.13-1.08 3.3-1.66 3.48-2.23 3.48-3.38L3.48-3.38 3.48-19.2Q3.48-20.38 3.3-20.94 3.13-21.5 2.6-21.7 2.07-21.91 1.08-21.94L1.08-21.94 1.08-22.58Q1.88-22.55 3.24-22.5 4.59-22.45 5.93-22.49L5.93-22.49Q7.08-22.52 8.53-22.55 9.98-22.58 10.94-22.58ZM10.91-22.01L10.91-22.01Q9.44-22.01 8.99-21.46 8.55-20.92 8.55-19.26L8.55-19.26 8.55-3.32Q8.55-1.66 9.01-1.12 9.47-0.57 10.94-0.57L10.94-0.57Q13.62-0.57 15.17-1.83 16.71-3.09 17.38-5.52 18.05-7.94 18.05-11.42L18.05-11.42Q18.05-16.78 16.39-19.39 14.74-22.01 10.91-22.01ZM35.4-22.58L35.4-22.58 35.4-21.94Q34.38-21.91 33.86-21.7 33.33-21.5 33.17-20.94 33.01-20.38 33.01-19.2L33.01-19.2 33.01-3.38Q33.01-2.23 33.19-1.66 33.36-1.08 33.87-0.89 34.38-0.7 35.4-0.64L35.4-0.64 35.4 0Q34.54-0.06 33.23-0.08 31.93-0.1 30.59-0.1L30.59-0.1Q29.02-0.1 27.7-0.08 26.38-0.06 25.55 0L25.55 0 25.55-0.64Q26.57-0.7 27.08-0.89 27.59-1.08 27.76-1.66 27.94-2.23 27.94-3.38L27.94-3.38 27.94-19.2Q27.94-20.38 27.76-20.94 27.59-21.5 27.06-21.7 26.54-21.91 25.55-21.94L25.55-21.94 25.55-22.58Q26.38-22.55 27.7-22.52 29.02-22.49 30.59-22.49L30.59-22.49Q31.93-22.49 33.23-22.52 34.54-22.55 35.4-22.58ZM48.19-22.64L48.19-22.64 55.94-2.68Q56.39-1.53 56.95-1.1 57.5-0.67 57.95-0.64L57.95-0.64 57.95 0Q56.99-0.06 55.7-0.08 54.41-0.1 53.1-0.1L53.1-0.1Q51.64-0.1 50.33-0.08 49.02-0.06 48.26 0L48.26 0 48.26-0.64Q49.88-0.7 50.31-1.2 50.74-1.69 50.11-3.32L50.11-3.32 44.68-18.15 45.26-18.98 40.41-6.35Q39.52-3.99 39.53-2.77 39.55-1.56 40.31-1.13 41.08-0.7 42.36-0.64L42.36-0.64 42.36 0Q41.3-0.06 40.35-0.08 39.39-0.1 38.4-0.1L38.4-0.1Q37.7-0.1 37.08-0.08 36.45-0.06 35.98 0L35.98 0 35.98-0.64Q36.65-0.77 37.35-1.5 38.05-2.23 38.72-3.99L38.72-3.99 45.99-22.64Q46.5-22.61 47.09-22.61 47.68-22.61 48.19-22.64ZM41.24-9.19L50.42-9.19 50.42-8.55 40.92-8.55 41.24-9.19ZM58.17-21.94L58.17-22.58Q58.97-22.55 60.33-22.52 61.68-22.49 63.02-22.49L63.02-22.49Q64.55-22.49 65.99-22.52 67.42-22.55 68.03-22.55L68.03-22.55Q72.46-22.55 74.66-21.1 76.86-19.65 76.86-17L76.86-17Q76.86-15.92 76.42-14.81 75.97-13.71 74.9-12.77 73.83-11.83 71.98-11.27 70.13-10.72 67.33-10.72L67.33-10.72 64.27-10.72 64.27-11.35 67.01-11.35Q68.89-11.35 69.86-12.07 70.84-12.79 71.2-13.99 71.57-15.18 71.57-16.65L71.57-16.65Q71.57-19.17 70.68-20.56 69.78-21.94 67.62-21.94L67.62-21.94Q66.37-21.94 66-21.4 65.64-20.86 65.64-19.2L65.64-19.2 65.64-3.38Q65.64-2.23 65.81-1.66 65.99-1.08 66.5-0.89 67.01-0.7 68.03-0.64L68.03-0.64 68.03 0Q67.17-0.06 65.86-0.08 64.55-0.1 63.21-0.1L63.21-0.1Q61.68-0.1 60.33-0.08 58.97-0.06 58.17 0L58.17 0 58.17-0.64Q59.2-0.7 59.71-0.89 60.22-1.08 60.39-1.66 60.57-2.23 60.57-3.38L60.57-3.38 60.57-19.2Q60.57-20.38 60.39-20.94 60.22-21.5 59.69-21.7 59.16-21.91 58.17-21.94L58.17-21.94ZM64.27-10.72L64.2-11.26Q65.57-11.23 66.58-11.13 67.58-11.04 68.35-10.96 69.11-10.88 69.72-10.84L69.72-10.84Q72.62-10.59 74.01-9.6 75.4-8.61 75.81-6.63L75.81-6.63 76.55-3.35Q76.83-2.07 77.15-1.56 77.47-1.05 78.08-1.05L78.08-1.05Q78.49-1.08 78.76-1.26 79.03-1.44 79.35-1.79L79.35-1.79 79.8-1.4Q78.94-0.41 77.95 0.02 76.96 0.45 75.56 0.45L75.56 0.45Q73.83 0.45 72.72-0.29 71.6-1.02 71.25-3L71.25-3 70.68-6.19Q70.45-7.53 70.13-8.53 69.82-9.54 69.26-10.13 68.7-10.72 67.71-10.72L67.71-10.72 64.27-10.72ZM90.1-22.58L90.1-22.58 90.1-21.94Q89.08-21.91 88.55-21.7 88.03-21.5 87.87-20.94 87.71-20.38 87.71-19.2L87.71-19.2 87.71-3.38Q87.71-2.23 87.88-1.66 88.06-1.08 88.57-0.89 89.08-0.7 90.1-0.64L90.1-0.64 90.1 0Q89.24-0.06 87.93-0.08 86.62-0.1 85.28-0.1L85.28-0.1Q83.72-0.1 82.4-0.08 81.07-0.06 80.25 0L80.25 0 80.25-0.64Q81.27-0.7 81.78-0.89 82.29-1.08 82.46-1.66 82.64-2.23 82.64-3.38L82.64-3.38 82.64-19.2Q82.64-20.38 82.46-20.94 82.29-21.5 81.76-21.7 81.23-21.91 80.25-21.94L80.25-21.94 80.25-22.58Q81.07-22.55 82.4-22.52 83.72-22.49 85.28-22.49L85.28-22.49Q86.62-22.49 87.93-22.52 89.24-22.55 90.1-22.58ZM109.3-22.58L109.3-22.58Q109.17-21.18 109.13-19.87 109.08-18.56 109.08-17.86L109.08-17.86Q109.08-17.22 109.11-16.65 109.14-16.07 109.17-15.69L109.17-15.69 108.44-15.69Q108.12-18.02 107.45-19.38 106.78-20.73 105.71-21.29 104.64-21.85 103.21-21.85L103.21-21.85 101.9-21.85Q100.94-21.85 100.48-21.69 100.02-21.53 99.86-21.07 99.7-20.6 99.7-19.58L99.7-19.58 99.7-3Q99.7-2.01 99.86-1.53 100.02-1.05 100.48-0.89 100.94-0.73 101.9-0.73L101.9-0.73 103.46-0.73Q104.9-0.73 106-1.36 107.1-1.98 107.88-3.48 108.66-4.98 109.08-7.53L109.08-7.53 109.81-7.53Q109.72-6.51 109.72-4.85L109.72-4.85Q109.72-4.11 109.75-2.77 109.78-1.44 109.94 0L109.94 0Q108.31-0.06 106.27-0.08 104.23-0.1 102.63-0.1L102.63-0.1Q101.55-0.1 99.76-0.1 97.98-0.1 95.97-0.08 93.96-0.06 92.24 0L92.24 0 92.24-0.64Q93.26-0.7 93.77-0.89 94.28-1.08 94.45-1.66 94.63-2.23 94.63-3.38L94.63-3.38 94.63-19.2Q94.63-20.38 94.45-20.94 94.28-21.5 93.75-21.7 93.23-21.91 92.24-21.94L92.24-21.94 92.24-22.58Q93.96-22.55 95.97-22.52 97.98-22.49 99.76-22.49 101.55-22.49 102.63-22.49L102.63-22.49Q104.1-22.49 105.97-22.5 107.83-22.52 109.3-22.58ZM98.74-11.67L104.33-11.67Q104.33-11.67 104.33-11.35 104.33-11.04 104.33-11.04L104.33-11.04 98.74-11.04Q98.74-11.04 98.74-11.35 98.74-11.67 98.74-11.67L98.74-11.67ZM104.52-15.88L105.25-15.88Q105.12-14.07 105.14-13.11 105.15-12.15 105.15-11.35L105.15-11.35Q105.15-10.56 105.19-9.6 105.22-8.64 105.35-6.83L105.35-6.83 104.61-6.83Q104.45-7.94 104.02-8.9 103.59-9.86 102.79-10.45 102-11.04 100.72-11.04L100.72-11.04 100.72-11.67Q102-11.67 102.76-12.37 103.53-13.08 103.94-14.05 104.36-15.02 104.52-15.88L104.52-15.88ZM120.43-23L120.43-23Q122.31-23 123.33-22.6 124.35-22.2 125.09-21.75L125.09-21.75Q125.47-21.53 125.71-21.42 125.95-21.31 126.17-21.31L126.17-21.31Q126.68-21.31 126.87-22.71L126.87-22.71 127.61-22.71Q127.58-22.1 127.53-21.26 127.48-20.41 127.46-19.04 127.45-17.67 127.45-15.44L127.45-15.44 126.71-15.44Q126.59-17.1 125.95-18.66 125.31-20.22 124.15-21.23 122.98-22.23 121.29-22.23L121.29-22.23Q119.76-22.23 118.77-21.37 117.78-20.51 117.78-18.98L117.78-18.98Q117.78-17.7 118.42-16.79 119.06-15.88 120.29-15.02 121.52-14.16 123.27-12.95L123.27-12.95Q124.8-11.96 126.01-10.97 127.23-9.98 127.96-8.74 128.69-7.5 128.69-5.77L128.69-5.77Q128.69-3.67 127.59-2.3 126.49-0.92 124.71-0.24 122.92 0.45 120.78 0.45L120.78 0.45Q118.81 0.45 117.63 0.06 116.45-0.32 115.65-0.73L115.65-0.73Q114.95-1.18 114.56-1.18L114.56-1.18Q114.05-1.18 113.86 0.22L113.86 0.22 113.13 0.22Q113.19-0.54 113.21-1.56 113.22-2.58 113.24-4.23 113.26-5.87 113.26-8.39L113.26-8.39 113.99-8.39Q114.12-6.28 114.71-4.45 115.3-2.62 116.52-1.5 117.75-0.38 119.79-0.38L119.79-0.38Q121.45-0.38 122.6-1.28 123.75-2.17 123.75-3.95L123.75-3.95Q123.75-5.93 122.41-7.22 121.07-8.52 118.96-9.89L118.96-9.89Q117.47-10.88 116.16-11.86 114.85-12.85 114.07-14.13 113.29-15.4 113.29-17.16L113.29-17.16Q113.29-19.17 114.29-20.46 115.3-21.75 116.94-22.37 118.58-23 120.43-23Z" transform="translate(-1.0800000429153442, 23)"></path></g></g></g></g> <g data-gra="path-slogan" fill-rule="" class="tp-slogan iconsvg-slogansvg" fill="#333" transform="translate(2.705188751220703,45.12905502319336)"><rect width="0"></rect> <rect x="127.4800033569336" width="0"></rect> <g transform="translate(0,0)"><g transform="scale(1)"><path d="M1.06-7.69L1.06 0L5.39 0L5.39-0.83L2.03-0.83L2.03-7.69ZM6.56-7.69L6.56 0L7.54 0L7.54-7.69ZM8.40-7.69L10.86 0L12.00 0L14.44-7.69L13.44-7.69L12.21-3.54C12.08-3.08 11.96-2.65 11.85-2.26C11.74-1.87 11.61-1.45 11.47-1.00L11.43-1.00C11.28-1.45 11.15-1.87 11.05-2.26C10.94-2.65 10.82-3.08 10.68-3.54L9.44-7.69ZM15.30-7.69L15.30 0L16.28 0L16.28-7.69ZM18.20-7.69L18.20 0L19.12 0L19.12-4.02C19.12-4.43 19.11-4.83 19.08-5.24C19.06-5.64 19.03-6.03 19.00-6.43L19.04-6.43L19.87-4.84L22.67 0L23.67 0L23.67-7.69L22.75-7.69L22.75-3.72C22.75-3.31 22.76-2.90 22.79-2.48C22.82-2.06 22.84-1.66 22.86-1.27L22.82-1.27L21.99-2.86L19.21-7.69ZM25.15-3.85C25.15-3.22 25.23-2.66 25.41-2.16C25.58-1.67 25.82-1.25 26.12-0.91C26.43-0.57 26.79-0.31 27.21-0.13C27.63 0.05 28.10 0.14 28.61 0.14C29.12 0.14 29.59 0.06 30.00-0.11C30.41-0.28 30.74-0.49 30.99-0.75L30.99-3.99L28.47-3.99L28.47-3.18L30.10-3.18L30.10-1.17C29.94-1.03 29.74-0.92 29.49-0.84C29.25-0.76 28.99-0.72 28.71-0.72C28.30-0.72 27.93-0.79 27.62-0.94C27.30-1.09 27.03-1.30 26.82-1.57C26.60-1.84 26.44-2.18 26.33-2.56C26.21-2.95 26.16-3.38 26.16-3.87C26.16-4.35 26.22-4.78 26.34-5.16C26.46-5.54 26.63-5.87 26.85-6.14C27.07-6.41 27.33-6.62 27.65-6.76C27.96-6.90 28.31-6.98 28.70-6.98C29.09-6.98 29.41-6.91 29.67-6.77C29.92-6.63 30.15-6.46 30.34-6.26L30.89-6.88C30.67-7.12 30.38-7.33 30.02-7.53C29.66-7.73 29.22-7.83 28.69-7.83C28.17-7.83 27.70-7.74 27.27-7.56C26.84-7.37 26.47-7.11 26.15-6.77C25.83-6.42 25.59-6.00 25.41-5.51C25.24-5.02 25.15-4.46 25.15-3.85ZM34.03-7.69L35.66 0L36.82 0L37.96-4.63C38.02-4.93 38.09-5.22 38.15-5.51C38.22-5.79 38.28-6.08 38.35-6.38L38.39-6.38C38.46-6.08 38.52-5.79 38.57-5.51C38.63-5.22 38.70-4.93 38.77-4.63L39.93 0L41.10 0L42.70-7.69L41.76-7.69L40.95-3.51C40.87-3.09 40.80-2.68 40.73-2.27C40.66-1.86 40.59-1.44 40.51-1.02L40.47-1.02C40.37-1.44 40.28-1.86 40.19-2.27C40.09-2.69 40.00-3.10 39.91-3.51L38.84-7.69L37.95-7.69L36.88-3.51C36.79-3.09 36.70-2.68 36.61-2.27C36.52-1.86 36.43-1.44 36.34-1.02L36.29-1.02C36.22-1.44 36.15-1.86 36.07-2.26C35.99-2.67 35.92-3.08 35.85-3.51L35.04-7.69ZM43.84-7.69L43.84 0L44.82 0L44.82-7.69ZM48.33-6.87L48.33 0L49.31 0L49.31-6.87L51.64-6.87L51.64-7.69L46.01-7.69L46.01-6.87ZM52.83-7.69L52.83 0L53.80 0L53.80-3.62L57.38-3.62L57.38 0L58.36 0L58.36-7.69L57.38-7.69L57.38-4.47L53.80-4.47L53.80-7.69ZM63.12 0.14C63.61 0.14 64.05 0.05 64.45-0.14C64.86-0.33 65.20-0.60 65.50-0.94C65.79-1.29 66.02-1.71 66.18-2.21C66.34-2.71 66.42-3.26 66.42-3.88C66.42-4.49 66.34-5.04 66.18-5.53C66.02-6.02 65.79-6.43 65.50-6.77C65.20-7.11 64.86-7.37 64.45-7.56C64.05-7.74 63.61-7.83 63.12-7.83C62.64-7.83 62.19-7.74 61.79-7.56C61.39-7.38 61.04-7.12 60.75-6.78C60.46-6.44 60.24-6.03 60.08-5.54C59.92-5.05 59.84-4.50 59.84-3.88C59.84-3.26 59.92-2.71 60.08-2.21C60.24-1.71 60.46-1.29 60.75-0.94C61.04-0.60 61.39-0.33 61.79-0.14C62.19 0.05 62.64 0.14 63.12 0.14ZM63.12-0.72C62.78-0.72 62.47-0.79 62.19-0.94C61.91-1.09 61.67-1.30 61.47-1.58C61.27-1.85 61.12-2.19 61.01-2.57C60.90-2.96 60.85-3.40 60.85-3.88C60.85-4.36 60.90-4.79 61.01-5.17C61.12-5.55 61.27-5.88 61.47-6.14C61.67-6.41 61.91-6.62 62.19-6.76C62.47-6.90 62.78-6.98 63.12-6.98C63.47-6.98 63.78-6.90 64.05-6.76C64.33-6.62 64.57-6.41 64.77-6.14C64.97-5.88 65.12-5.55 65.23-5.17C65.34-4.79 65.40-4.36 65.40-3.88C65.40-3.40 65.34-2.96 65.23-2.57C65.12-2.19 64.97-1.85 64.77-1.58C64.57-1.30 64.33-1.09 64.05-0.94C63.78-0.79 63.47-0.72 63.12-0.72ZM67.84-7.69L67.84-3.18C67.84-2.56 67.91-2.04 68.06-1.62C68.20-1.20 68.39-0.85 68.64-0.59C68.88-0.33 69.18-0.14 69.52-0.03C69.86 0.08 70.22 0.14 70.61 0.14C71.00 0.14 71.37 0.08 71.70-0.03C72.04-0.14 72.33-0.33 72.58-0.59C72.82-0.85 73.02-1.20 73.16-1.62C73.30-2.04 73.37-2.56 73.37-3.18L73.37-7.69L72.43-7.69L72.43-3.15C72.43-2.69 72.38-2.31 72.29-1.99C72.19-1.68 72.07-1.43 71.90-1.24C71.74-1.06 71.55-0.92 71.33-0.84C71.11-0.76 70.87-0.72 70.61-0.72C70.36-0.72 70.13-0.76 69.91-0.84C69.69-0.92 69.50-1.06 69.34-1.24C69.18-1.43 69.05-1.68 68.96-1.99C68.86-2.31 68.82-2.69 68.82-3.15L68.82-7.69ZM76.85-6.87L76.85 0L77.83 0L77.83-6.87L80.15-6.87L80.15-7.69L74.52-7.69L74.52-6.87ZM83.52-7.69L83.52 0L88.07 0L88.07-0.83L84.50-0.83L84.50-3.62L87.42-3.62L87.42-4.46L84.50-4.46L84.50-6.87L87.96-6.87L87.96-7.69ZM90.87-3.97L88.63 0L89.67 0L90.78-2.08C90.87-2.26 90.97-2.46 91.07-2.66C91.17-2.86 91.28-3.07 91.39-3.31L91.44-3.31C91.56-3.07 91.68-2.86 91.78-2.66C91.89-2.46 91.99-2.26 92.09-2.08L93.22 0L94.30 0L92.06-3.93L94.16-7.69L93.12-7.69L92.10-5.72C92.01-5.54 91.92-5.37 91.84-5.20C91.76-5.03 91.66-4.83 91.55-4.61L91.51-4.61C91.39-4.83 91.29-5.03 91.20-5.20C91.11-5.37 91.01-5.54 90.91-5.72L89.86-7.69L88.79-7.69ZM94.69-3.85C94.69-3.22 94.78-2.66 94.94-2.16C95.11-1.67 95.35-1.25 95.65-0.91C95.95-0.57 96.31-0.31 96.72-0.13C97.13 0.05 97.57 0.14 98.06 0.14C98.55 0.14 98.99 0.04 99.37-0.15C99.75-0.35 100.10-0.62 100.40-0.97L99.85-1.57C99.60-1.30 99.34-1.09 99.06-0.94C98.78-0.79 98.46-0.72 98.08-0.72C97.71-0.72 97.38-0.79 97.09-0.94C96.80-1.09 96.55-1.30 96.35-1.57C96.14-1.84 95.98-2.18 95.87-2.56C95.76-2.95 95.70-3.38 95.70-3.87C95.70-4.35 95.76-4.78 95.88-5.16C95.99-5.54 96.16-5.87 96.37-6.14C96.58-6.41 96.83-6.62 97.13-6.76C97.43-6.90 97.76-6.98 98.13-6.98C98.46-6.98 98.74-6.91 98.99-6.78C99.24-6.65 99.46-6.48 99.66-6.26L100.22-6.88C99.99-7.13 99.70-7.35 99.35-7.55C99.00-7.74 98.59-7.83 98.12-7.83C97.62-7.83 97.17-7.74 96.75-7.56C96.33-7.37 95.97-7.11 95.67-6.77C95.36-6.42 95.12-6.00 94.95-5.51C94.78-5.02 94.69-4.46 94.69-3.85ZM101.44-7.69L101.44-3.18C101.44-2.56 101.51-2.04 101.65-1.62C101.80-1.20 101.99-0.85 102.24-0.59C102.48-0.33 102.77-0.14 103.11-0.03C103.45 0.08 103.82 0.14 104.21 0.14C104.60 0.14 104.97 0.08 105.30-0.03C105.64-0.14 105.93-0.33 106.18-0.59C106.42-0.85 106.61-1.20 106.76-1.62C106.90-2.04 106.97-2.56 106.97-3.18L106.97-7.69L106.03-7.69L106.03-3.15C106.03-2.69 105.98-2.31 105.89-1.99C105.79-1.68 105.66-1.43 105.50-1.24C105.34-1.06 105.15-0.92 104.93-0.84C104.71-0.76 104.47-0.72 104.21-0.72C103.96-0.72 103.73-0.76 103.51-0.84C103.29-0.92 103.10-1.06 102.94-1.24C102.78-1.43 102.65-1.68 102.56-1.99C102.46-2.31 102.42-2.69 102.42-3.15L102.42-7.69ZM108.76-1.68L108.17-1.00C108.51-0.64 108.91-0.37 109.37-0.16C109.83 0.04 110.33 0.14 110.87 0.14C111.27 0.14 111.64 0.08 111.96-0.03C112.28-0.14 112.55-0.30 112.78-0.50C113.01-0.70 113.18-0.93 113.30-1.20C113.42-1.46 113.48-1.75 113.48-2.05C113.48-2.33 113.44-2.58 113.36-2.80C113.28-3.01 113.17-3.20 113.03-3.36C112.88-3.52 112.72-3.66 112.52-3.78C112.33-3.90 112.12-4.01 111.90-4.10L110.81-4.57C110.65-4.64 110.50-4.70 110.35-4.78C110.20-4.85 110.07-4.94 109.94-5.04C109.82-5.13 109.72-5.25 109.64-5.38C109.57-5.51 109.53-5.66 109.53-5.85C109.53-6.20 109.66-6.48 109.92-6.68C110.19-6.88 110.53-6.98 110.96-6.98C111.32-6.98 111.64-6.91 111.93-6.78C112.21-6.65 112.47-6.48 112.71-6.25L113.24-6.88C112.96-7.16 112.63-7.39 112.24-7.57C111.85-7.74 111.42-7.83 110.96-7.83C110.61-7.83 110.29-7.78 109.99-7.68C109.70-7.58 109.45-7.44 109.23-7.25C109.02-7.07 108.85-6.85 108.73-6.60C108.61-6.35 108.55-6.08 108.55-5.79C108.55-5.51 108.59-5.26 108.69-5.05C108.78-4.83 108.90-4.65 109.05-4.49C109.20-4.33 109.37-4.20 109.55-4.09C109.74-3.98 109.93-3.89 110.11-3.81L111.21-3.33C111.39-3.24 111.56-3.16 111.71-3.08C111.87-3.01 112.00-2.92 112.12-2.82C112.23-2.72 112.32-2.61 112.39-2.47C112.45-2.33 112.49-2.17 112.49-1.97C112.49-1.59 112.35-1.29 112.06-1.06C111.78-0.83 111.39-0.72 110.88-0.72C110.48-0.72 110.10-0.80 109.72-0.98C109.35-1.15 109.03-1.39 108.76-1.68ZM114.81-7.69L114.81 0L119.35 0L119.35-0.83L115.78-0.83L115.78-3.62L118.70-3.62L118.70-4.46L115.78-4.46L115.78-6.87L119.24-6.87L119.24-7.69ZM120.82-1.68L120.23-1.00C120.57-0.64 120.97-0.37 121.43-0.16C121.89 0.04 122.39 0.14 122.93 0.14C123.33 0.14 123.70 0.08 124.02-0.03C124.34-0.14 124.61-0.30 124.84-0.50C125.07-0.70 125.24-0.93 125.36-1.20C125.48-1.46 125.54-1.75 125.54-2.05C125.54-2.33 125.50-2.58 125.42-2.80C125.34-3.01 125.23-3.20 125.09-3.36C124.94-3.52 124.78-3.66 124.58-3.78C124.39-3.90 124.18-4.01 123.96-4.10L122.87-4.57C122.71-4.64 122.56-4.70 122.41-4.78C122.26-4.85 122.13-4.94 122.00-5.04C121.88-5.13 121.78-5.25 121.70-5.38C121.63-5.51 121.59-5.66 121.59-5.85C121.59-6.20 121.72-6.48 121.98-6.68C122.25-6.88 122.59-6.98 123.02-6.98C123.38-6.98 123.70-6.91 123.99-6.78C124.27-6.65 124.53-6.48 124.77-6.25L125.30-6.88C125.02-7.16 124.69-7.39 124.30-7.57C123.91-7.74 123.48-7.83 123.02-7.83C122.67-7.83 122.35-7.78 122.05-7.68C121.76-7.58 121.51-7.44 121.29-7.25C121.08-7.07 120.91-6.85 120.79-6.60C120.67-6.35 120.61-6.08 120.61-5.79C120.61-5.51 120.65-5.26 120.75-5.05C120.84-4.83 120.96-4.65 121.11-4.49C121.26-4.33 121.43-4.20 121.61-4.09C121.80-3.98 121.99-3.89 122.17-3.81L123.27-3.33C123.45-3.24 123.62-3.16 123.77-3.08C123.93-3.01 124.06-2.92 124.18-2.82C124.29-2.72 124.38-2.61 124.45-2.47C124.51-2.33 124.55-2.17 124.55-1.97C124.55-1.59 124.41-1.29 124.12-1.06C123.84-0.83 123.45-0.72 122.94-0.72C122.54-0.72 122.16-0.80 121.78-0.98C121.41-1.15 121.09-1.39 120.82-1.68Z" transform="translate(-1.0552899792549835, 7.832596734914767)"></path></g></g></g></g></g><defs v-gra="od"></defs></svg>