<?xml version="1.0" encoding="UTF-8" standalone="no" ?>
<!DOCTYPE svg PUBLIC "-//W3C//DTD SVG 1.1//EN" "http://www.w3.org/Graphics/SVG/1.1/DTD/svg11.dtd">
<svg xmlns="http://www.w3.org/2000/svg" xmlns:xlink="http://www.w3.org/1999/xlink" version="1.1" width="640" height="480" viewBox="0 0 640 480" xml:space="preserve">
<desc>Created with Fabric.js 3.6.6</desc>
<defs>
</defs>
<g transform="matrix(2.98 0 0 2.98 334.25 243.25)"  >
<g style=""   >
		<g transform="matrix(1 0 0 1 -120 -75)"  >
<rect style="stroke: none; stroke-width: 1; stroke-dasharray: none; stroke-linecap: butt; stroke-dashoffset: 0; stroke-linejoin: miter; stroke-miterlimit: 4; fill: rgb(0,0,0); fill-opacity: 0; fill-rule: nonzero; opacity: 1;"  x="-50" y="-50" rx="0" ry="0" width="100" height="100" />
</g>
		<g transform="matrix(1 0 0 1 -44.54 5)"  >
<polyline style="stroke: rgb(254,255,255); stroke-width: 3; stroke-dasharray: none; stroke-linecap: butt; stroke-dashoffset: 0; stroke-linejoin: miter; stroke-miterlimit: 4; fill: rgb(0,128,13); fill-opacity: 0; fill-rule: nonzero; opacity: 1;"  points="49.54,-40.51 49.54,-60.51 -49.54,-60.51 -49.54,60.51 49.54,60.51 49.54,40.51 " />
</g>
		<g transform="matrix(1 0 0 1 -54.54 -5)"  >
<polyline style="stroke: rgb(254,255,255); stroke-width: 3; stroke-dasharray: none; stroke-linecap: butt; stroke-dashoffset: 0; stroke-linejoin: miter; stroke-miterlimit: 4; fill: rgb(0,128,13); fill-opacity: 0; fill-rule: nonzero; opacity: 1;"  points="49.54,-50.51 49.54,-60.51 -49.54,-60.51 -49.54,60.51 -39.54,60.51 " />
</g>
		<g transform="matrix(1 0 0 1 5 5)"  >
<rect style="stroke: none; stroke-width: 2; stroke-dasharray: none; stroke-linecap: butt; stroke-dashoffset: 0; stroke-linejoin: miter; stroke-miterlimit: 4; fill: rgb(254,255,255); fill-opacity: 0; fill-rule: nonzero; opacity: 1;"  x="-99.08999633789062" y="-40.51411819458008" rx="0" ry="0" width="198.17999267578125" height="81.02823638916016" />
</g>
		<g transform="matrix(1 0 0 1 5 -23.07)"  >
<path style="stroke: none; stroke-width: 1; stroke-dasharray: none; stroke-linecap: butt; stroke-dashoffset: 0; stroke-linejoin: miter; stroke-miterlimit: 4; fill: rgb(254,255,255); fill-rule: nonzero; opacity: 1;"  transform=" translate(-90.08, 9.34)" d="M 7.23 -15.21 L 5.26 -8.06 L 9.5 -8.06 L 7.52 -15.21 L 7.23 -15.21 Z M 10.86 -16.17 L 13.63 -6.75 Q 13.66 -5.84 13.7 -4.9 Q 13.74 -3.95 13.74 -3.07 L 13.74 -3.07 L 13.74 -2.67 Q 13.74 -2.16 13.71 -1.69 Q 13.67 -1.21 13.5 -0.83 Q 13.33 -0.45 12.95 -0.23 Q 12.58 0 11.9 0 L 11.9 0 Q 11.21 0 10.83 -0.23 Q 10.46 -0.45 10.28 -0.83 Q 10.1 -1.2 10.07 -1.68 Q 10.03 -2.16 10.03 -2.67 L 10.03 -2.67 L 10.03 -4.54 L 4.7 -4.54 L 4.7 -2.67 Q 4.7 -2.16 4.66 -1.68 Q 4.63 -1.2 4.45 -0.83 Q 4.27 -0.45 3.9 -0.23 Q 3.52 0 2.83 0 L 2.83 0 Q 2.13 0 1.76 -0.23 Q 1.39 -0.45 1.21 -0.83 Q 1.04 -1.21 1.01 -1.69 Q 0.99 -2.16 0.99 -2.67 L 0.99 -2.67 L 0.99 -3.07 Q 0.99 -3.48 0.99 -3.95 Q 1 -4.42 1.01 -4.9 Q 1.03 -5.38 1.04 -5.85 Q 1.05 -6.32 1.07 -6.75 L 1.07 -6.75 Q 1.73 -9.07 2.47 -11.45 Q 3.2 -13.83 3.87 -16.17 L 3.87 -16.17 Q 4 -16.66 4.19 -17.12 Q 4.38 -17.58 4.68 -17.92 Q 4.99 -18.26 5.47 -18.47 Q 5.95 -18.68 6.7 -18.68 L 6.7 -18.68 L 8.03 -18.68 Q 8.77 -18.68 9.25 -18.47 Q 9.74 -18.26 10.05 -17.92 Q 10.35 -17.58 10.53 -17.12 Q 10.71 -16.66 10.86 -16.17 L 10.86 -16.17 Z M 16.62 -3.1 L 16.62 -15.64 Q 16.62 -16.21 16.66 -16.76 Q 16.69 -17.3 16.88 -17.73 Q 17.06 -18.16 17.47 -18.42 Q 17.88 -18.68 18.62 -18.68 L 18.62 -18.68 L 23.03 -18.68 Q 24.67 -18.6 25.96 -17.98 L 25.96 -17.98 Q 26.51 -17.72 27.04 -17.32 Q 27.56 -16.93 27.98 -16.35 Q 28.39 -15.77 28.64 -14.98 Q 28.9 -14.2 28.9 -13.15 L 28.9 -13.15 Q 28.9 -12.94 28.86 -12.59 Q 28.82 -12.23 28.68 -11.81 Q 28.55 -11.39 28.32 -10.94 Q 28.1 -10.49 27.72 -10.07 Q 27.35 -9.66 26.81 -9.31 Q 26.27 -8.97 25.54 -8.75 L 25.54 -8.75 Q 26 -8.57 26.48 -8.26 Q 26.96 -7.96 27.35 -7.5 Q 27.74 -7.03 27.98 -6.38 Q 28.23 -5.72 28.23 -4.86 L 28.23 -4.86 L 28.23 -2.96 Q 28.23 -2.8 28.31 -2.69 Q 28.39 -2.59 28.47 -2.51 L 28.47 -2.51 Q 28.79 -2.19 28.84 -1.95 Q 28.9 -1.72 28.9 -1.57 L 28.9 -1.57 Q 28.9 -1.11 28.71 -0.79 Q 28.52 -0.47 28.22 -0.27 Q 27.92 -0.07 27.54 0.02 Q 27.16 0.11 26.76 0.11 L 26.76 0.11 Q 26.32 0.11 25.87 -0.03 Q 25.42 -0.17 25.04 -0.44 Q 24.67 -0.71 24.43 -1.11 Q 24.2 -1.51 24.2 -2.03 L 24.2 -2.03 L 24.2 -4.86 Q 24.2 -5.44 24.12 -5.94 Q 24.04 -6.43 23.81 -6.79 Q 23.59 -7.15 23.19 -7.35 Q 22.79 -7.55 22.15 -7.55 L 22.15 -7.55 L 20.65 -7.55 L 20.65 -3.1 Q 20.65 -2.51 20.62 -1.95 Q 20.59 -1.39 20.4 -0.95 Q 20.21 -0.52 19.8 -0.26 Q 19.38 0 18.62 0 L 18.62 0 Q 17.88 0 17.47 -0.26 Q 17.06 -0.52 16.88 -0.95 Q 16.69 -1.39 16.66 -1.95 Q 16.62 -2.51 16.62 -3.1 L 16.62 -3.1 Z M 20.65 -10.54 L 22.47 -10.54 Q 23.13 -10.57 23.67 -10.86 L 23.67 -10.86 Q 23.89 -10.98 24.11 -11.17 Q 24.32 -11.35 24.49 -11.63 Q 24.67 -11.91 24.77 -12.29 Q 24.87 -12.66 24.87 -13.15 L 24.87 -13.15 Q 24.87 -13.59 24.77 -13.93 Q 24.67 -14.28 24.51 -14.53 Q 24.35 -14.78 24.14 -14.96 Q 23.93 -15.13 23.72 -15.24 L 23.72 -15.24 Q 23.21 -15.49 22.57 -15.53 L 22.57 -15.53 L 20.65 -15.53 L 20.65 -10.54 Z M 37.62 -7.36 L 35.91 -7.36 L 35.91 -3.04 Q 35.91 -2.47 35.88 -1.92 Q 35.85 -1.37 35.65 -0.95 Q 35.46 -0.52 35.05 -0.26 Q 34.63 0 33.86 0 L 33.86 0 Q 33.11 0 32.71 -0.26 Q 32.3 -0.52 32.11 -0.95 Q 31.93 -1.37 31.89 -1.92 Q 31.86 -2.47 31.86 -3.04 L 31.86 -3.04 L 31.86 -15.64 Q 31.86 -16.21 31.89 -16.76 Q 31.93 -17.3 32.11 -17.73 Q 32.3 -18.16 32.71 -18.42 Q 33.11 -18.68 33.86 -18.68 L 33.86 -18.68 L 38.26 -18.68 Q 39.92 -18.6 41.22 -17.98 L 41.22 -17.98 Q 41.78 -17.72 42.31 -17.32 Q 42.84 -16.92 43.26 -16.34 Q 43.68 -15.76 43.93 -14.96 Q 44.19 -14.17 44.19 -13.13 L 44.19 -13.13 Q 44.19 -11.7 43.74 -10.63 Q 43.29 -9.55 42.45 -8.83 Q 41.6 -8.1 40.38 -7.73 Q 39.16 -7.36 37.62 -7.36 L 37.62 -7.36 Z M 35.91 -10.54 L 37.73 -10.54 Q 38.4 -10.58 38.93 -10.86 L 38.93 -10.86 Q 39.16 -10.98 39.37 -11.17 Q 39.58 -11.35 39.76 -11.63 Q 39.93 -11.9 40.03 -12.27 Q 40.13 -12.65 40.13 -13.13 L 40.13 -13.13 Q 40.13 -13.58 40.03 -13.92 Q 39.93 -14.26 39.77 -14.51 Q 39.61 -14.76 39.41 -14.93 Q 39.21 -15.1 39 -15.22 L 39 -15.22 Q 38.49 -15.48 37.86 -15.53 L 37.86 -15.53 L 35.91 -15.53 L 35.91 -10.54 Z M 46.64 -3.07 L 46.64 -15.61 Q 46.64 -16.18 46.7 -16.73 Q 46.76 -17.28 46.98 -17.71 Q 47.2 -18.14 47.64 -18.41 Q 48.08 -18.68 48.86 -18.68 L 48.86 -18.68 Q 49.63 -18.68 50.07 -18.41 Q 50.51 -18.14 50.73 -17.71 Q 50.95 -17.28 51.01 -16.73 Q 51.07 -16.18 51.07 -15.61 L 51.07 -15.61 L 51.07 -3.07 Q 51.07 -2.48 51.02 -1.93 Q 50.96 -1.39 50.74 -0.95 Q 50.52 -0.52 50.08 -0.26 Q 49.63 0 48.86 0 L 48.86 0 Q 48.08 0 47.64 -0.26 Q 47.2 -0.52 46.98 -0.95 Q 46.76 -1.39 46.7 -1.93 Q 46.64 -2.48 46.64 -3.07 L 46.64 -3.07 Z M 56.46 -18.68 L 63.24 -18.68 Q 63.77 -18.68 64.31 -18.64 Q 64.85 -18.6 65.29 -18.41 Q 65.73 -18.22 66.01 -17.84 Q 66.28 -17.46 66.28 -16.78 L 66.28 -16.78 Q 66.28 -16.12 66.01 -15.74 Q 65.73 -15.36 65.29 -15.17 Q 64.85 -14.98 64.31 -14.94 Q 63.77 -14.89 63.24 -14.89 L 63.24 -14.89 L 61.88 -14.89 L 61.88 -3.04 Q 61.88 -2.47 61.84 -1.92 Q 61.81 -1.37 61.62 -0.95 Q 61.44 -0.52 61.02 -0.26 Q 60.61 0 59.85 0 L 59.85 0 Q 59.09 0 58.67 -0.26 Q 58.26 -0.52 58.07 -0.95 Q 57.89 -1.37 57.85 -1.92 Q 57.82 -2.47 57.82 -3.04 L 57.82 -3.04 L 57.82 -14.89 L 56.46 -14.89 Q 55.93 -14.89 55.39 -14.94 Q 54.85 -14.98 54.41 -15.17 Q 53.97 -15.36 53.69 -15.74 Q 53.42 -16.12 53.42 -16.78 L 53.42 -16.78 Q 53.42 -17.46 53.69 -17.84 Q 53.97 -18.22 54.41 -18.41 Q 54.85 -18.6 55.39 -18.64 Q 55.93 -18.68 56.46 -18.68 L 56.46 -18.68 Z M 71.38 -14.73 L 71.38 -13.98 Q 71.38 -13.61 71.33 -13.26 Q 71.28 -12.91 71.12 -12.65 Q 70.95 -12.38 70.63 -12.22 Q 70.31 -12.06 69.77 -12.06 L 69.77 -12.06 Q 69.19 -12.06 68.85 -12.22 Q 68.52 -12.38 68.36 -12.65 Q 68.2 -12.91 68.16 -13.26 Q 68.12 -13.61 68.12 -13.98 L 68.12 -13.98 L 68.12 -16.81 Q 68.12 -17.14 68.16 -17.49 Q 68.2 -17.84 68.36 -18.11 Q 68.52 -18.38 68.85 -18.56 Q 69.19 -18.73 69.77 -18.73 L 69.77 -18.73 Q 70.31 -18.73 70.63 -18.56 Q 70.95 -18.38 71.12 -18.11 Q 71.28 -17.84 71.33 -17.49 Q 71.38 -17.14 71.38 -16.81 L 71.38 -16.81 L 71.38 -14.73 Z M 78.66 -13.98 L 78.66 -13.98 Q 78.67 -13.42 78.99 -12.97 Q 79.3 -12.53 79.81 -12.13 Q 80.33 -11.73 80.98 -11.35 Q 81.64 -10.97 82.32 -10.55 Q 83.01 -10.13 83.66 -9.63 Q 84.32 -9.14 84.84 -8.51 Q 85.36 -7.88 85.68 -7.1 Q 86 -6.31 86.02 -5.31 L 86.02 -5.31 L 86.02 -5.2 Q 86.02 -4.11 85.76 -3.3 Q 85.49 -2.48 85.05 -1.89 Q 84.61 -1.31 84.02 -0.93 Q 83.44 -0.55 82.79 -0.32 Q 82.14 -0.09 81.48 0 Q 80.82 0.09 80.23 0.11 L 80.23 0.11 L 80.1 0.11 Q 78.97 0.11 78.11 -0.12 Q 77.26 -0.35 76.65 -0.73 Q 76.03 -1.11 75.62 -1.6 Q 75.22 -2.09 74.98 -2.62 Q 74.74 -3.15 74.63 -3.67 Q 74.52 -4.19 74.52 -4.64 L 74.52 -4.64 Q 74.52 -5.11 74.68 -5.46 Q 74.84 -5.8 75.1 -6.02 Q 75.36 -6.24 75.7 -6.35 Q 76.05 -6.46 76.42 -6.46 L 76.42 -6.46 Q 76.77 -6.46 77.13 -6.35 Q 77.5 -6.24 77.8 -6.02 Q 78.1 -5.8 78.29 -5.46 Q 78.49 -5.12 78.5 -4.67 L 78.5 -4.67 Q 78.53 -3.67 78.95 -3.3 Q 79.38 -2.94 80.18 -2.94 L 80.18 -2.94 Q 80.58 -2.95 80.92 -3.04 Q 81.26 -3.12 81.5 -3.34 Q 81.74 -3.56 81.88 -3.93 Q 82.02 -4.3 82.02 -4.86 L 82.02 -4.86 Q 82.02 -5.55 81.71 -6.11 Q 81.39 -6.67 80.89 -7.15 Q 80.38 -7.63 79.73 -8.06 Q 79.07 -8.5 78.39 -8.93 Q 77.71 -9.37 77.07 -9.84 Q 76.42 -10.31 75.9 -10.87 Q 75.38 -11.43 75.06 -12.11 Q 74.75 -12.79 74.74 -13.66 L 74.74 -13.66 L 74.74 -13.87 Q 74.75 -15.3 75.12 -16.25 Q 75.48 -17.2 76.2 -17.76 Q 76.91 -18.32 77.95 -18.55 Q 78.99 -18.78 80.34 -18.78 L 80.34 -18.78 L 80.69 -18.78 Q 81.92 -18.78 82.77 -18.52 Q 83.62 -18.25 84.19 -17.84 Q 84.76 -17.42 85.08 -16.9 Q 85.41 -16.38 85.57 -15.88 Q 85.73 -15.37 85.77 -14.93 Q 85.81 -14.49 85.81 -14.22 L 85.81 -14.22 Q 85.81 -13.82 85.66 -13.49 Q 85.5 -13.17 85.24 -12.94 Q 84.98 -12.71 84.63 -12.59 Q 84.28 -12.46 83.86 -12.46 L 83.86 -12.46 Q 83.54 -12.46 83.22 -12.59 Q 82.9 -12.71 82.65 -12.91 Q 82.4 -13.11 82.24 -13.37 Q 82.08 -13.63 82.08 -13.9 L 82.08 -13.9 Q 82.08 -15 81.68 -15.42 Q 81.29 -15.85 80.53 -15.85 L 80.53 -15.85 Q 80.17 -15.85 79.83 -15.81 Q 79.49 -15.77 79.23 -15.59 Q 78.97 -15.41 78.81 -15.04 Q 78.66 -14.66 78.66 -13.98 Z M 100.7 -18.68 L 107.48 -18.68 Q 108.01 -18.68 108.55 -18.64 Q 109.09 -18.6 109.53 -18.41 Q 109.97 -18.22 110.25 -17.84 Q 110.52 -17.46 110.52 -16.78 L 110.52 -16.78 Q 110.52 -16.12 110.25 -15.74 Q 109.97 -15.36 109.53 -15.17 Q 109.09 -14.98 108.55 -14.94 Q 108.01 -14.89 107.48 -14.89 L 107.48 -14.89 L 106.12 -14.89 L 106.12 -3.04 Q 106.12 -2.47 106.08 -1.92 Q 106.05 -1.37 105.86 -0.95 Q 105.68 -0.52 105.26 -0.26 Q 104.85 0 104.09 0 L 104.09 0 Q 103.33 0 102.91 -0.26 Q 102.5 -0.52 102.31 -0.95 Q 102.13 -1.37 102.09 -1.92 Q 102.06 -2.47 102.06 -3.04 L 102.06 -3.04 L 102.06 -14.89 L 100.7 -14.89 Q 100.17 -14.89 99.63 -14.94 Q 99.09 -14.98 98.65 -15.17 Q 98.2 -15.36 97.93 -15.74 Q 97.66 -16.12 97.66 -16.78 L 97.66 -16.78 Q 97.66 -17.46 97.93 -17.84 Q 98.2 -18.22 98.65 -18.41 Q 99.09 -18.6 99.63 -18.64 Q 100.17 -18.68 100.7 -18.68 L 100.7 -18.68 Z M 112.52 -3.1 L 112.52 -15.64 Q 112.52 -16.21 112.55 -16.76 Q 112.59 -17.3 112.77 -17.73 Q 112.96 -18.16 113.37 -18.42 Q 113.77 -18.68 114.52 -18.68 L 114.52 -18.68 L 118.92 -18.68 Q 120.56 -18.6 121.86 -17.98 L 121.86 -17.98 Q 122.41 -17.72 122.93 -17.32 Q 123.46 -16.93 123.87 -16.35 Q 124.29 -15.77 124.54 -14.98 Q 124.79 -14.2 124.79 -13.15 L 124.79 -13.15 Q 124.79 -12.94 124.75 -12.59 Q 124.71 -12.23 124.58 -11.81 Q 124.45 -11.39 124.22 -10.94 Q 123.99 -10.49 123.62 -10.07 Q 123.25 -9.66 122.71 -9.31 Q 122.17 -8.97 121.43 -8.75 L 121.43 -8.75 Q 121.9 -8.57 122.38 -8.26 Q 122.86 -7.96 123.25 -7.5 Q 123.63 -7.03 123.88 -6.38 Q 124.13 -5.72 124.13 -4.86 L 124.13 -4.86 L 124.13 -2.96 Q 124.13 -2.8 124.21 -2.69 Q 124.29 -2.59 124.37 -2.51 L 124.37 -2.51 Q 124.69 -2.19 124.74 -1.95 Q 124.79 -1.72 124.79 -1.57 L 124.79 -1.57 Q 124.79 -1.11 124.61 -0.79 Q 124.42 -0.47 124.12 -0.27 Q 123.82 -0.07 123.44 0.02 Q 123.06 0.11 122.66 0.11 L 122.66 0.11 Q 122.22 0.11 121.77 -0.03 Q 121.31 -0.17 120.94 -0.44 Q 120.56 -0.71 120.33 -1.11 Q 120.1 -1.51 120.1 -2.03 L 120.1 -2.03 L 120.1 -4.86 Q 120.1 -5.44 120.02 -5.94 Q 119.94 -6.43 119.71 -6.79 Q 119.48 -7.15 119.08 -7.35 Q 118.68 -7.55 118.04 -7.55 L 118.04 -7.55 L 116.55 -7.55 L 116.55 -3.1 Q 116.55 -2.51 116.52 -1.95 Q 116.48 -1.39 116.3 -0.95 Q 116.11 -0.52 115.7 -0.26 Q 115.28 0 114.52 0 L 114.52 0 Q 113.77 0 113.37 -0.26 Q 112.96 -0.52 112.77 -0.95 Q 112.59 -1.39 112.55 -1.95 Q 112.52 -2.51 112.52 -3.1 L 112.52 -3.1 Z M 116.55 -10.54 L 118.36 -10.54 Q 119.03 -10.57 119.56 -10.86 L 119.56 -10.86 Q 119.79 -10.98 120 -11.17 Q 120.22 -11.35 120.39 -11.63 Q 120.56 -11.91 120.66 -12.29 Q 120.76 -12.66 120.76 -13.15 L 120.76 -13.15 Q 120.76 -13.59 120.66 -13.93 Q 120.56 -14.28 120.4 -14.53 Q 120.24 -14.78 120.04 -14.96 Q 119.83 -15.13 119.62 -15.24 L 119.62 -15.24 Q 119.11 -15.49 118.47 -15.53 L 118.47 -15.53 L 116.55 -15.53 L 116.55 -10.54 Z M 133.09 -15.21 L 131.12 -8.06 L 135.36 -8.06 L 133.39 -15.21 L 133.09 -15.21 Z M 136.72 -16.17 L 139.5 -6.75 Q 139.52 -5.84 139.56 -4.9 Q 139.6 -3.95 139.6 -3.07 L 139.6 -3.07 L 139.6 -2.67 Q 139.6 -2.16 139.57 -1.69 Q 139.54 -1.21 139.36 -0.83 Q 139.19 -0.45 138.82 -0.23 Q 138.44 0 137.76 0 L 137.76 0 Q 137.07 0 136.69 -0.23 Q 136.32 -0.45 136.14 -0.83 Q 135.96 -1.2 135.93 -1.68 Q 135.89 -2.16 135.89 -2.67 L 135.89 -2.67 L 135.89 -4.54 L 130.56 -4.54 L 130.56 -2.67 Q 130.56 -2.16 130.52 -1.68 Q 130.49 -1.2 130.31 -0.83 Q 130.13 -0.45 129.76 -0.23 Q 129.38 0 128.69 0 L 128.69 0 Q 128 0 127.62 -0.23 Q 127.25 -0.45 127.08 -0.83 Q 126.9 -1.21 126.88 -1.69 Q 126.85 -2.16 126.85 -2.67 L 126.85 -2.67 L 126.85 -3.07 Q 126.85 -3.48 126.86 -3.95 Q 126.86 -4.42 126.88 -4.9 Q 126.89 -5.38 126.9 -5.85 Q 126.92 -6.32 126.93 -6.75 L 126.93 -6.75 Q 127.6 -9.07 128.33 -11.45 Q 129.06 -13.83 129.73 -16.17 L 129.73 -16.17 Q 129.86 -16.66 130.05 -17.12 Q 130.24 -17.58 130.54 -17.92 Q 130.85 -18.26 131.33 -18.47 Q 131.81 -18.68 132.56 -18.68 L 132.56 -18.68 L 133.89 -18.68 Q 134.63 -18.68 135.11 -18.47 Q 135.6 -18.26 135.91 -17.92 Q 136.21 -17.58 136.39 -17.12 Q 136.57 -16.66 136.72 -16.17 L 136.72 -16.17 Z M 151.85 -18.68 L 151.85 -18.68 Q 152.24 -18.68 152.6 -18.54 Q 152.96 -18.41 153.23 -18.18 Q 153.5 -17.96 153.66 -17.64 Q 153.82 -17.33 153.82 -16.97 L 153.82 -16.97 Q 153.82 -16.8 153.8 -16.64 Q 153.78 -16.49 153.76 -16.37 L 153.76 -16.37 Q 153.72 -16.22 153.69 -16.12 L 153.69 -16.12 Q 152.78 -12.55 151.8 -8.85 Q 150.81 -5.15 149.9 -1.6 L 149.9 -1.6 Q 149.7 -1.15 149.37 -0.8 L 149.37 -0.8 Q 149.09 -0.49 148.64 -0.25 Q 148.19 0 147.53 0 L 147.53 0 L 147.1 0 Q 146.43 0 145.98 -0.25 Q 145.53 -0.49 145.25 -0.8 L 145.25 -0.8 Q 144.91 -1.15 144.73 -1.6 L 144.73 -1.6 L 140.94 -16.12 Q 140.9 -16.22 140.87 -16.37 L 140.87 -16.37 Q 140.8 -16.64 140.8 -16.97 L 140.8 -16.97 Q 140.8 -17.33 140.96 -17.64 Q 141.11 -17.96 141.38 -18.18 Q 141.64 -18.41 142 -18.54 Q 142.36 -18.68 142.78 -18.68 L 142.78 -18.68 Q 143.42 -18.68 143.81 -18.4 Q 144.21 -18.12 144.43 -17.77 L 144.43 -17.77 Q 144.69 -17.37 144.81 -16.86 L 144.81 -16.86 Q 144.97 -16.22 145.15 -15.42 Q 145.34 -14.61 145.53 -13.74 Q 145.71 -12.87 145.91 -11.97 Q 146.1 -11.07 146.27 -10.23 L 146.27 -10.23 Q 146.69 -8.26 147.1 -6.19 L 147.1 -6.19 L 147.53 -6.19 Q 147.98 -8.26 148.41 -10.23 L 148.41 -10.23 Q 148.58 -11.07 148.77 -11.97 Q 148.97 -12.87 149.16 -13.74 Q 149.34 -14.61 149.52 -15.42 Q 149.69 -16.22 149.82 -16.86 L 149.82 -16.86 Q 149.96 -17.37 150.21 -17.77 L 150.21 -17.77 Q 150.44 -18.12 150.82 -18.4 Q 151.21 -18.68 151.85 -18.68 Z M 157.8 -18.68 L 163.03 -18.68 Q 163.56 -18.68 164.11 -18.64 Q 164.66 -18.6 165.1 -18.41 Q 165.54 -18.22 165.82 -17.84 Q 166.1 -17.46 166.1 -16.78 L 166.1 -16.78 Q 166.1 -16.1 165.82 -15.72 Q 165.54 -15.34 165.1 -15.16 Q 164.66 -14.97 164.11 -14.93 Q 163.56 -14.89 163.03 -14.89 L 163.03 -14.89 L 159.85 -14.89 L 159.85 -11.26 L 161.54 -11.26 Q 162.07 -11.26 162.61 -11.23 Q 163.15 -11.19 163.57 -11.01 Q 163.99 -10.83 164.26 -10.47 Q 164.52 -10.1 164.52 -9.45 L 164.52 -9.45 Q 164.52 -8.78 164.26 -8.42 Q 163.99 -8.06 163.57 -7.88 Q 163.15 -7.7 162.61 -7.66 Q 162.07 -7.63 161.54 -7.63 L 161.54 -7.63 L 159.85 -7.63 L 159.85 -3.79 L 163.03 -3.79 Q 163.56 -3.79 164.11 -3.75 Q 164.66 -3.71 165.1 -3.53 Q 165.54 -3.35 165.82 -2.97 Q 166.1 -2.59 166.1 -1.92 L 166.1 -1.92 Q 166.1 -1.23 165.81 -0.84 Q 165.52 -0.45 165.08 -0.27 Q 164.64 -0.08 164.1 -0.04 Q 163.55 0 163.03 0 L 163.03 0 L 157.8 0 Q 157.05 0 156.65 -0.27 Q 156.24 -0.53 156.05 -0.97 Q 155.87 -1.4 155.83 -1.95 Q 155.8 -2.49 155.8 -3.07 L 155.8 -3.07 L 155.8 -15.61 Q 155.8 -16.18 155.83 -16.73 Q 155.87 -17.28 156.05 -17.71 Q 156.24 -18.14 156.65 -18.41 Q 157.05 -18.68 157.8 -18.68 L 157.8 -18.68 Z M 169.46 -1.97 L 169.46 -15.61 Q 169.46 -16.18 169.51 -16.73 Q 169.57 -17.28 169.77 -17.71 Q 169.98 -18.14 170.38 -18.41 Q 170.78 -18.68 171.49 -18.68 L 171.49 -18.68 Q 172.25 -18.68 172.68 -18.41 Q 173.1 -18.14 173.3 -17.71 Q 173.5 -17.28 173.55 -16.73 Q 173.6 -16.18 173.6 -15.61 L 173.6 -15.61 L 173.6 -3.92 L 176.21 -3.92 Q 176.76 -3.92 177.29 -3.87 Q 177.83 -3.82 178.25 -3.62 Q 178.67 -3.42 178.92 -3.03 Q 179.17 -2.64 179.17 -1.97 L 179.17 -1.97 Q 179.17 -1.29 178.92 -0.9 Q 178.67 -0.51 178.25 -0.31 Q 177.83 -0.11 177.29 -0.05 Q 176.76 0 176.21 0 L 176.21 0 L 172.42 0 Q 171.72 0 171.17 -0.05 Q 170.62 -0.11 170.24 -0.31 Q 169.86 -0.51 169.66 -0.9 Q 169.46 -1.29 169.46 -1.97 L 169.46 -1.97 Z" stroke-linecap="round" />
</g>
		<g transform="matrix(1.02 0 0 1.02 5 8.87)"  >
<path style="stroke: none; stroke-width: 1; stroke-dasharray: none; stroke-linecap: butt; stroke-dashoffset: 0; stroke-linejoin: miter; stroke-miterlimit: 4; fill: rgb(254,255,255); fill-rule: nonzero; opacity: 1;"  transform=" translate(-90.95, 18.89)" d="M 7.72 -37.77 L 15.54 -37.77 Q 17.99 -37.77 20.11 -37.15 Q 22.23 -36.53 23.81 -35.3 Q 25.39 -34.07 26.29 -32.24 Q 27.19 -30.4 27.19 -27.95 L 27.19 -27.95 L 27.19 -11.22 Q 27.19 -9.12 26.74 -7.51 Q 26.28 -5.91 25.54 -4.73 Q 24.79 -3.56 23.85 -2.74 Q 22.9 -1.92 21.93 -1.4 L 21.93 -1.4 Q 19.61 -0.16 16.67 0 L 16.67 0 L 7.72 0 Q 6.18 0 5.34 -0.53 Q 4.51 -1.05 4.13 -1.93 Q 3.75 -2.81 3.68 -3.91 Q 3.62 -5.02 3.62 -6.21 L 3.62 -6.21 L 3.62 -31.62 Q 3.62 -32.78 3.68 -33.88 Q 3.75 -34.99 4.13 -35.85 Q 4.51 -36.72 5.34 -37.24 Q 6.18 -37.77 7.72 -37.77 L 7.72 -37.77 Z M 15.32 -31.46 L 11.82 -31.46 L 11.82 -6.42 L 15.32 -6.42 Q 16.48 -6.47 17.4 -6.96 L 17.4 -6.96 Q 17.78 -7.15 18.16 -7.47 Q 18.53 -7.8 18.83 -8.24 Q 19.13 -8.69 19.3 -9.31 Q 19.48 -9.93 19.48 -10.74 L 19.48 -10.74 L 19.48 -26.65 Q 19.48 -27.54 19.3 -28.23 Q 19.13 -28.92 18.83 -29.43 Q 18.53 -29.95 18.16 -30.3 Q 17.78 -30.65 17.4 -30.86 L 17.4 -30.86 Q 16.48 -31.38 15.32 -31.46 L 15.32 -31.46 Z M 34.05 -6.21 L 34.05 -31.56 Q 34.05 -32.72 34.17 -33.83 Q 34.29 -34.94 34.73 -35.81 Q 35.18 -36.69 36.07 -37.23 Q 36.96 -37.77 38.53 -37.77 L 38.53 -37.77 Q 40.09 -37.77 40.98 -37.23 Q 41.87 -36.69 42.32 -35.81 Q 42.76 -34.94 42.88 -33.83 Q 43 -32.72 43 -31.56 L 43 -31.56 L 43 -6.21 Q 43 -5.02 42.9 -3.91 Q 42.79 -2.81 42.34 -1.93 Q 41.9 -1.05 40.99 -0.53 Q 40.09 0 38.53 0 L 38.53 0 Q 36.96 0 36.07 -0.53 Q 35.18 -1.05 34.73 -1.93 Q 34.29 -2.81 34.17 -3.91 Q 34.05 -5.02 34.05 -6.21 L 34.05 -6.21 Z M 62.1 -30.76 L 58.11 -16.29 L 66.69 -16.29 L 62.7 -30.76 L 62.1 -30.76 Z M 69.44 -32.7 L 75.05 -13.65 Q 75.11 -11.82 75.19 -9.9 Q 75.27 -7.99 75.27 -6.21 L 75.27 -6.21 L 75.27 -5.4 Q 75.27 -4.37 75.2 -3.41 Q 75.13 -2.46 74.78 -1.69 Q 74.43 -0.92 73.68 -0.46 Q 72.92 0 71.55 0 L 71.55 0 Q 70.14 0 69.39 -0.46 Q 68.63 -0.92 68.27 -1.67 Q 67.9 -2.43 67.84 -3.4 Q 67.77 -4.37 67.77 -5.4 L 67.77 -5.4 L 67.77 -9.17 L 56.98 -9.17 L 56.98 -5.4 Q 56.98 -4.37 56.91 -3.4 Q 56.84 -2.43 56.48 -1.67 Q 56.12 -0.92 55.36 -0.46 Q 54.6 0 53.2 0 L 53.2 0 Q 51.8 0 51.04 -0.46 Q 50.29 -0.92 49.94 -1.69 Q 49.59 -2.46 49.53 -3.41 Q 49.48 -4.37 49.48 -5.4 L 49.48 -5.4 L 49.48 -6.21 Q 49.48 -7.04 49.49 -7.99 Q 49.51 -8.93 49.53 -9.9 Q 49.56 -10.87 49.59 -11.83 Q 49.61 -12.79 49.64 -13.65 L 49.64 -13.65 Q 50.99 -18.35 52.47 -23.16 Q 53.96 -27.98 55.31 -32.7 L 55.31 -32.7 Q 55.58 -33.7 55.95 -34.63 Q 56.33 -35.56 56.95 -36.25 Q 57.57 -36.93 58.54 -37.35 Q 59.51 -37.77 61.03 -37.77 L 61.03 -37.77 L 63.72 -37.77 Q 65.21 -37.77 66.19 -37.35 Q 67.18 -36.93 67.8 -36.25 Q 68.42 -35.56 68.78 -34.63 Q 69.15 -33.7 69.44 -32.7 L 69.44 -32.7 Z M 81.1 -6.26 L 81.1 -31.62 Q 81.1 -32.78 81.16 -33.88 Q 81.23 -34.99 81.61 -35.85 Q 81.99 -36.72 82.81 -37.24 Q 83.63 -37.77 85.14 -37.77 L 85.14 -37.77 L 94.05 -37.77 Q 97.37 -37.61 99.98 -36.37 L 99.98 -36.37 Q 101.09 -35.83 102.15 -35.03 Q 103.22 -34.24 104.06 -33.06 Q 104.89 -31.89 105.4 -30.3 Q 105.92 -28.71 105.92 -26.6 L 105.92 -26.6 Q 105.92 -26.17 105.84 -25.45 Q 105.76 -24.74 105.49 -23.89 Q 105.22 -23.04 104.76 -22.12 Q 104.3 -21.21 103.54 -20.37 Q 102.79 -19.53 101.7 -18.83 Q 100.6 -18.13 99.12 -17.7 L 99.12 -17.7 Q 100.06 -17.32 101.03 -16.71 Q 102.01 -16.11 102.79 -15.16 Q 103.57 -14.22 104.07 -12.9 Q 104.57 -11.57 104.57 -9.82 L 104.57 -9.82 L 104.57 -5.99 Q 104.57 -5.67 104.73 -5.45 Q 104.89 -5.23 105.05 -5.07 L 105.05 -5.07 Q 105.7 -4.42 105.81 -3.95 Q 105.92 -3.48 105.92 -3.18 L 105.92 -3.18 Q 105.92 -2.24 105.54 -1.59 Q 105.16 -0.94 104.55 -0.54 Q 103.95 -0.13 103.18 0.04 Q 102.41 0.22 101.6 0.22 L 101.6 0.22 Q 100.71 0.22 99.79 -0.07 Q 98.88 -0.35 98.12 -0.89 Q 97.37 -1.43 96.89 -2.24 Q 96.42 -3.05 96.42 -4.1 L 96.42 -4.1 L 96.42 -9.82 Q 96.42 -11.01 96.26 -12.01 Q 96.1 -13 95.64 -13.73 Q 95.18 -14.46 94.37 -14.87 Q 93.56 -15.27 92.27 -15.27 L 92.27 -15.27 L 89.24 -15.27 L 89.24 -6.26 Q 89.24 -5.07 89.18 -3.94 Q 89.11 -2.81 88.73 -1.93 Q 88.35 -1.05 87.52 -0.53 Q 86.68 0 85.14 0 L 85.14 0 Q 83.63 0 82.81 -0.53 Q 81.99 -1.05 81.61 -1.93 Q 81.23 -2.81 81.16 -3.94 Q 81.1 -5.07 81.1 -6.26 L 81.1 -6.26 Z M 89.24 -21.31 L 92.91 -21.31 Q 94.26 -21.37 95.34 -21.96 L 95.34 -21.96 Q 95.8 -22.2 96.23 -22.58 Q 96.66 -22.96 97.01 -23.53 Q 97.37 -24.09 97.57 -24.85 Q 97.77 -25.6 97.77 -26.6 L 97.77 -26.6 Q 97.77 -27.49 97.57 -28.18 Q 97.37 -28.87 97.04 -29.38 Q 96.72 -29.89 96.3 -30.24 Q 95.88 -30.59 95.45 -30.81 L 95.45 -30.81 Q 94.42 -31.32 93.13 -31.4 L 93.13 -31.4 L 89.24 -31.4 L 89.24 -21.31 Z M 112.61 -6.21 L 112.61 -31.56 Q 112.61 -32.72 112.73 -33.83 Q 112.85 -34.94 113.3 -35.81 Q 113.74 -36.69 114.63 -37.23 Q 115.52 -37.77 117.09 -37.77 L 117.09 -37.77 Q 118.65 -37.77 119.54 -37.23 Q 120.43 -36.69 120.88 -35.81 Q 121.32 -34.94 121.44 -33.83 Q 121.56 -32.72 121.56 -31.56 L 121.56 -31.56 L 121.56 -6.21 Q 121.56 -5.02 121.46 -3.91 Q 121.35 -2.81 120.9 -1.93 Q 120.46 -1.05 119.55 -0.53 Q 118.65 0 117.09 0 L 117.09 0 Q 115.52 0 114.63 -0.53 Q 113.74 -1.05 113.3 -1.93 Q 112.85 -2.81 112.73 -3.91 Q 112.61 -5.02 112.61 -6.21 L 112.61 -6.21 Z M 133.87 -37.77 L 144.44 -37.77 Q 145.52 -37.77 146.63 -37.69 Q 147.73 -37.61 148.62 -37.23 Q 149.51 -36.85 150.08 -36.08 Q 150.65 -35.31 150.65 -33.94 L 150.65 -33.94 Q 150.65 -32.56 150.08 -31.79 Q 149.51 -31.03 148.62 -30.65 Q 147.73 -30.27 146.63 -30.19 Q 145.52 -30.11 144.44 -30.11 L 144.44 -30.11 L 138.02 -30.11 L 138.02 -22.77 L 141.42 -22.77 Q 142.5 -22.77 143.59 -22.7 Q 144.69 -22.63 145.54 -22.27 Q 146.38 -21.91 146.92 -21.16 Q 147.46 -20.42 147.46 -19.1 L 147.46 -19.1 Q 147.46 -17.75 146.92 -17.02 Q 146.38 -16.29 145.54 -15.93 Q 144.69 -15.57 143.59 -15.5 Q 142.5 -15.43 141.42 -15.43 L 141.42 -15.43 L 138.02 -15.43 L 138.02 -7.66 L 144.44 -7.66 Q 145.52 -7.66 146.63 -7.58 Q 147.73 -7.5 148.62 -7.14 Q 149.51 -6.77 150.08 -6 Q 150.65 -5.23 150.65 -3.88 L 150.65 -3.88 Q 150.65 -2.48 150.07 -1.7 Q 149.49 -0.92 148.6 -0.54 Q 147.71 -0.16 146.6 -0.08 Q 145.49 0 144.44 0 L 144.44 0 L 133.87 0 Q 132.36 0 131.53 -0.54 Q 130.71 -1.08 130.33 -1.96 Q 129.96 -2.83 129.89 -3.94 Q 129.82 -5.04 129.82 -6.21 L 129.82 -6.21 L 129.82 -31.56 Q 129.82 -32.72 129.89 -33.83 Q 129.96 -34.94 130.33 -35.81 Q 130.71 -36.69 131.53 -37.23 Q 132.36 -37.77 133.87 -37.77 L 133.87 -37.77 Z M 163.38 -28.27 L 163.38 -28.27 Q 163.41 -27.14 164.04 -26.24 Q 164.68 -25.33 165.71 -24.52 Q 166.75 -23.71 168.08 -22.95 Q 169.4 -22.18 170.79 -21.33 Q 172.18 -20.48 173.5 -19.48 Q 174.82 -18.48 175.87 -17.21 Q 176.92 -15.94 177.57 -14.35 Q 178.22 -12.76 178.27 -10.74 L 178.27 -10.74 L 178.27 -10.52 Q 178.27 -8.31 177.73 -6.66 Q 177.19 -5.02 176.3 -3.83 Q 175.41 -2.64 174.23 -1.87 Q 173.04 -1.11 171.73 -0.65 Q 170.42 -0.19 169.09 0 Q 167.75 0.19 166.56 0.22 L 166.56 0.22 L 166.29 0.22 Q 164 0.22 162.28 -0.24 Q 160.55 -0.7 159.31 -1.47 Q 158.07 -2.24 157.24 -3.24 Q 156.42 -4.24 155.94 -5.3 Q 155.45 -6.37 155.23 -7.42 Q 155.02 -8.47 155.02 -9.39 L 155.02 -9.39 Q 155.02 -10.33 155.34 -11.03 Q 155.67 -11.74 156.19 -12.18 Q 156.72 -12.63 157.41 -12.84 Q 158.09 -13.06 158.85 -13.06 L 158.85 -13.06 Q 159.55 -13.06 160.29 -12.84 Q 161.03 -12.63 161.64 -12.18 Q 162.25 -11.74 162.64 -11.05 Q 163.03 -10.36 163.06 -9.44 L 163.06 -9.44 Q 163.11 -7.42 163.97 -6.68 Q 164.84 -5.94 166.46 -5.94 L 166.46 -5.94 Q 167.27 -5.96 167.95 -6.14 Q 168.64 -6.31 169.13 -6.76 Q 169.61 -7.2 169.9 -7.95 Q 170.18 -8.69 170.18 -9.82 L 170.18 -9.82 Q 170.18 -11.22 169.55 -12.36 Q 168.91 -13.49 167.89 -14.46 Q 166.86 -15.43 165.54 -16.31 Q 164.22 -17.19 162.84 -18.06 Q 161.47 -18.94 160.16 -19.9 Q 158.85 -20.85 157.8 -21.99 Q 156.74 -23.12 156.11 -24.5 Q 155.48 -25.87 155.45 -27.63 L 155.45 -27.63 L 155.45 -28.06 Q 155.48 -30.94 156.22 -32.86 Q 156.96 -34.78 158.4 -35.91 Q 159.85 -37.04 161.95 -37.51 Q 164.06 -37.99 166.78 -37.99 L 166.78 -37.99 L 167.48 -37.99 Q 169.96 -37.99 171.69 -37.45 Q 173.42 -36.91 174.56 -36.07 Q 175.71 -35.23 176.37 -34.18 Q 177.03 -33.13 177.36 -32.1 Q 177.68 -31.08 177.76 -30.19 Q 177.84 -29.3 177.84 -28.76 L 177.84 -28.76 Q 177.84 -27.95 177.53 -27.29 Q 177.22 -26.63 176.7 -26.17 Q 176.17 -25.71 175.45 -25.45 Q 174.74 -25.2 173.9 -25.2 L 173.9 -25.2 Q 173.26 -25.2 172.61 -25.45 Q 171.96 -25.71 171.45 -26.12 Q 170.94 -26.52 170.61 -27.05 Q 170.29 -27.57 170.29 -28.11 L 170.29 -28.11 Q 170.29 -30.32 169.49 -31.19 Q 168.7 -32.05 167.16 -32.05 L 167.16 -32.05 Q 166.43 -32.05 165.74 -31.97 Q 165.05 -31.89 164.53 -31.52 Q 164 -31.16 163.69 -30.4 Q 163.38 -29.65 163.38 -28.27 Z" stroke-linecap="round" />
</g>
		<g transform="matrix(1 0 0 1 5 38.43)"  >
<path style="stroke: none; stroke-width: 1; stroke-dasharray: none; stroke-linecap: butt; stroke-dashoffset: 0; stroke-linejoin: miter; stroke-miterlimit: 4; fill: rgb(254,255,255); fill-rule: nonzero; opacity: 1;"  transform=" translate(-66.83, 3.94)" d="M 1.08 -7.87 L 1.08 0 L 5.52 0 L 5.52 -0.85 L 2.08 -0.85 L 2.08 -7.87 Z M 6.91 -7.87 L 6.91 0 L 7.91 0 L 7.91 -7.87 Z M 8.99 -7.87 L 11.51 0 L 12.67 0 L 15.17 -7.87 L 14.15 -7.87 L 12.89 -3.62 C 12.75 -3.15 12.63 -2.72 12.52 -2.32 C 12.4 -1.92 12.28 -1.48 12.13 -1.02 L 12.08 -1.02 C 11.93 -1.48 11.8 -1.92 11.69 -2.32 C 11.59 -2.72 11.46 -3.15 11.32 -3.62 L 10.06 -7.87 Z M 16.25 -7.87 L 16.25 0 L 17.24 0 L 17.24 -7.87 Z M 19.4 -7.87 L 19.4 0 L 20.35 0 L 20.35 -4.12 C 20.35 -4.53 20.34 -4.95 20.31 -5.36 C 20.28 -5.77 20.25 -6.18 20.22 -6.58 L 20.27 -6.58 L 21.12 -4.96 L 23.98 0 L 25.01 0 L 25.01 -7.87 L 24.06 -7.87 L 24.06 -3.8 C 24.06 -3.39 24.07 -2.97 24.1 -2.54 C 24.13 -2.11 24.16 -1.7 24.18 -1.3 L 24.13 -1.3 L 23.28 -2.93 L 20.44 -7.87 Z M 26.71 -3.94 C 26.71 -3.3 26.8 -2.72 26.98 -2.21 C 27.15 -1.71 27.4 -1.28 27.71 -0.93 C 28.02 -0.58 28.39 -0.32 28.82 -0.13 C 29.26 0.05 29.73 0.14 30.25 0.14 C 30.78 0.14 31.25 0.06 31.67 -0.11 C 32.09 -0.29 32.43 -0.5 32.69 -0.77 L 32.69 -4.08 L 30.11 -4.08 L 30.11 -3.25 L 31.78 -3.25 L 31.78 -1.2 C 31.62 -1.06 31.41 -0.94 31.16 -0.86 C 30.91 -0.77 30.64 -0.73 30.36 -0.73 C 29.94 -0.73 29.56 -0.81 29.24 -0.96 C 28.91 -1.11 28.64 -1.33 28.42 -1.61 C 28.2 -1.89 28.03 -2.23 27.92 -2.62 C 27.8 -3.02 27.74 -3.46 27.74 -3.96 C 27.74 -4.45 27.81 -4.89 27.93 -5.28 C 28.05 -5.67 28.23 -6.01 28.45 -6.28 C 28.68 -6.56 28.95 -6.77 29.27 -6.92 C 29.59 -7.07 29.95 -7.14 30.35 -7.14 C 30.75 -7.14 31.08 -7.07 31.34 -6.93 C 31.6 -6.79 31.83 -6.62 32.03 -6.41 L 32.59 -7.04 C 32.36 -7.28 32.06 -7.51 31.7 -7.71 C 31.33 -7.91 30.88 -8.02 30.34 -8.02 C 29.81 -8.02 29.32 -7.92 28.88 -7.73 C 28.44 -7.55 28.06 -7.28 27.74 -6.92 C 27.41 -6.57 27.16 -6.14 26.98 -5.64 C 26.8 -5.14 26.71 -4.57 26.71 -3.94 Z M 36.19 -7.87 L 37.86 0 L 39.05 0 L 40.21 -4.74 C 40.28 -5.04 40.34 -5.34 40.41 -5.63 C 40.48 -5.93 40.54 -6.22 40.61 -6.53 L 40.66 -6.53 C 40.72 -6.22 40.78 -5.93 40.84 -5.63 C 40.9 -5.34 40.97 -5.04 41.04 -4.74 L 42.23 0 L 43.43 0 L 45.06 -7.87 L 44.1 -7.87 L 43.27 -3.59 C 43.19 -3.16 43.12 -2.74 43.04 -2.32 C 42.97 -1.9 42.9 -1.48 42.83 -1.04 L 42.78 -1.04 C 42.68 -1.48 42.59 -1.9 42.49 -2.33 C 42.4 -2.75 42.3 -3.17 42.2 -3.59 L 41.11 -7.87 L 40.2 -7.87 L 39.11 -3.59 C 39.02 -3.16 38.93 -2.74 38.83 -2.32 C 38.74 -1.9 38.64 -1.48 38.56 -1.04 L 38.51 -1.04 C 38.44 -1.48 38.36 -1.9 38.28 -2.32 C 38.2 -2.73 38.12 -3.16 38.05 -3.59 L 37.22 -7.87 Z M 46.43 -7.87 L 46.43 0 L 47.42 0 L 47.42 -7.87 Z M 51.22 -7.03 L 51.22 0 L 52.22 0 L 52.22 -7.03 L 54.6 -7.03 L 54.6 -7.87 L 48.84 -7.87 L 48.84 -7.03 Z M 56.02 -7.87 L 56.02 0 L 57.01 0 L 57.01 -3.71 L 60.67 -3.71 L 60.67 0 L 61.68 0 L 61.68 -7.87 L 60.67 -7.87 L 60.67 -4.57 L 57.01 -4.57 L 57.01 -7.87 Z M 66.74 0.14 C 67.24 0.14 67.69 0.05 68.11 -0.14 C 68.52 -0.34 68.87 -0.61 69.17 -0.97 C 69.47 -1.32 69.71 -1.75 69.87 -2.26 C 70.03 -2.77 70.12 -3.34 70.12 -3.97 C 70.12 -4.6 70.03 -5.16 69.87 -5.66 C 69.71 -6.16 69.47 -6.58 69.17 -6.93 C 68.87 -7.28 68.52 -7.55 68.11 -7.73 C 67.69 -7.92 67.24 -8.02 66.74 -8.02 C 66.25 -8.02 65.79 -7.92 65.38 -7.74 C 64.97 -7.56 64.62 -7.29 64.32 -6.94 C 64.02 -6.59 63.79 -6.17 63.63 -5.67 C 63.47 -5.17 63.38 -4.6 63.38 -3.97 C 63.38 -3.34 63.47 -2.77 63.63 -2.26 C 63.79 -1.75 64.02 -1.32 64.32 -0.97 C 64.62 -0.61 64.97 -0.34 65.38 -0.14 C 65.79 0.05 66.25 0.14 66.74 0.14 Z M 66.74 -0.73 C 66.39 -0.73 66.07 -0.81 65.79 -0.96 C 65.51 -1.11 65.26 -1.33 65.06 -1.61 C 64.85 -1.9 64.7 -2.24 64.58 -2.63 C 64.47 -3.03 64.42 -3.48 64.42 -3.97 C 64.42 -4.46 64.47 -4.9 64.58 -5.29 C 64.7 -5.68 64.85 -6.02 65.06 -6.29 C 65.26 -6.56 65.51 -6.77 65.79 -6.92 C 66.07 -7.07 66.39 -7.14 66.74 -7.14 C 67.1 -7.14 67.41 -7.07 67.7 -6.92 C 67.98 -6.77 68.23 -6.56 68.43 -6.29 C 68.63 -6.02 68.79 -5.68 68.9 -5.29 C 69.02 -4.9 69.07 -4.46 69.07 -3.97 C 69.07 -3.48 69.02 -3.03 68.9 -2.63 C 68.79 -2.24 68.63 -1.9 68.43 -1.61 C 68.23 -1.33 67.98 -1.11 67.7 -0.96 C 67.41 -0.81 67.1 -0.73 66.74 -0.73 Z M 71.77 -7.87 L 71.77 -3.25 C 71.77 -2.62 71.84 -2.09 71.99 -1.66 C 72.13 -1.22 72.33 -0.87 72.58 -0.61 C 72.83 -0.34 73.13 -0.15 73.48 -0.03 C 73.83 0.09 74.2 0.14 74.6 0.14 C 75 0.14 75.38 0.09 75.72 -0.03 C 76.06 -0.15 76.36 -0.34 76.61 -0.61 C 76.87 -0.87 77.06 -1.22 77.21 -1.66 C 77.35 -2.09 77.42 -2.62 77.42 -3.25 L 77.42 -7.87 L 76.46 -7.87 L 76.46 -3.23 C 76.46 -2.76 76.42 -2.36 76.32 -2.04 C 76.22 -1.72 76.09 -1.46 75.92 -1.27 C 75.76 -1.08 75.56 -0.94 75.34 -0.86 C 75.11 -0.77 74.87 -0.73 74.6 -0.73 C 74.35 -0.73 74.11 -0.77 73.88 -0.86 C 73.66 -0.94 73.47 -1.08 73.3 -1.27 C 73.14 -1.46 73.01 -1.72 72.91 -2.04 C 72.82 -2.36 72.77 -2.76 72.77 -3.23 L 72.77 -7.87 Z M 81.18 -7.03 L 81.18 0 L 82.19 0 L 82.19 -7.03 L 84.56 -7.03 L 84.56 -7.87 L 78.8 -7.87 L 78.8 -7.03 Z M 88.4 -7.87 L 88.4 0 L 93.06 0 L 93.06 -0.85 L 89.4 -0.85 L 89.4 -3.71 L 92.39 -3.71 L 92.39 -4.56 L 89.4 -4.56 L 89.4 -7.03 L 92.94 -7.03 L 92.94 -7.87 Z M 96.12 -4.07 L 93.83 0 L 94.88 0 L 96.02 -2.12 C 96.12 -2.32 96.22 -2.51 96.32 -2.72 C 96.43 -2.92 96.54 -3.14 96.65 -3.38 L 96.7 -3.38 C 96.82 -3.14 96.94 -2.92 97.05 -2.72 C 97.16 -2.51 97.26 -2.32 97.37 -2.12 L 98.52 0 L 99.62 0 L 97.33 -4.02 L 99.48 -7.87 L 98.42 -7.87 L 97.38 -5.86 C 97.28 -5.67 97.19 -5.49 97.11 -5.32 C 97.03 -5.15 96.93 -4.95 96.82 -4.72 L 96.77 -4.72 C 96.65 -4.95 96.54 -5.15 96.45 -5.32 C 96.36 -5.49 96.26 -5.67 96.16 -5.86 L 95.09 -7.87 L 93.98 -7.87 Z M 100.22 -3.94 C 100.22 -3.3 100.31 -2.72 100.48 -2.21 C 100.65 -1.71 100.89 -1.28 101.2 -0.93 C 101.51 -0.58 101.87 -0.32 102.29 -0.13 C 102.71 0.05 103.17 0.14 103.67 0.14 C 104.17 0.14 104.62 0.04 105.01 -0.16 C 105.4 -0.36 105.76 -0.64 106.07 -1 L 105.5 -1.61 C 105.25 -1.33 104.98 -1.11 104.69 -0.96 C 104.41 -0.81 104.08 -0.73 103.69 -0.73 C 103.32 -0.73 102.98 -0.81 102.68 -0.96 C 102.38 -1.11 102.12 -1.33 101.92 -1.61 C 101.71 -1.89 101.55 -2.23 101.43 -2.62 C 101.31 -3.02 101.26 -3.46 101.26 -3.96 C 101.26 -4.45 101.32 -4.89 101.44 -5.28 C 101.56 -5.67 101.72 -6.01 101.94 -6.28 C 102.16 -6.56 102.42 -6.77 102.72 -6.92 C 103.02 -7.07 103.36 -7.14 103.74 -7.14 C 104.08 -7.14 104.37 -7.07 104.62 -6.94 C 104.87 -6.81 105.1 -6.63 105.31 -6.41 L 105.88 -7.04 C 105.64 -7.3 105.35 -7.53 104.99 -7.72 C 104.63 -7.92 104.21 -8.02 103.73 -8.02 C 103.22 -8.02 102.76 -7.92 102.33 -7.73 C 101.9 -7.55 101.53 -7.28 101.22 -6.92 C 100.91 -6.57 100.66 -6.14 100.49 -5.64 C 100.31 -5.14 100.22 -4.57 100.22 -3.94 Z M 107.33 -7.87 L 107.33 -3.25 C 107.33 -2.62 107.4 -2.09 107.54 -1.66 C 107.69 -1.22 107.89 -0.87 108.14 -0.61 C 108.39 -0.34 108.69 -0.15 109.04 -0.03 C 109.39 0.09 109.76 0.14 110.16 0.14 C 110.56 0.14 110.93 0.09 111.28 -0.03 C 111.62 -0.15 111.92 -0.34 112.17 -0.61 C 112.42 -0.87 112.62 -1.22 112.76 -1.66 C 112.91 -2.09 112.98 -2.62 112.98 -3.25 L 112.98 -7.87 L 112.02 -7.87 L 112.02 -3.23 C 112.02 -2.76 111.97 -2.36 111.88 -2.04 C 111.78 -1.72 111.65 -1.46 111.48 -1.27 C 111.31 -1.08 111.12 -0.94 110.89 -0.86 C 110.67 -0.77 110.42 -0.73 110.16 -0.73 C 109.9 -0.73 109.66 -0.77 109.44 -0.86 C 109.22 -0.94 109.02 -1.08 108.86 -1.27 C 108.69 -1.46 108.56 -1.72 108.47 -2.04 C 108.37 -2.36 108.32 -2.76 108.32 -3.23 L 108.32 -7.87 Z M 115.01 -1.72 L 114.41 -1.02 C 114.75 -0.66 115.16 -0.38 115.63 -0.17 C 116.1 0.04 116.62 0.14 117.17 0.14 C 117.58 0.14 117.96 0.09 118.28 -0.03 C 118.61 -0.15 118.89 -0.31 119.12 -0.51 C 119.36 -0.71 119.53 -0.95 119.66 -1.22 C 119.78 -1.5 119.84 -1.79 119.84 -2.1 C 119.84 -2.39 119.8 -2.64 119.72 -2.86 C 119.63 -3.08 119.52 -3.27 119.38 -3.44 C 119.23 -3.6 119.06 -3.75 118.86 -3.87 C 118.66 -3.99 118.45 -4.1 118.22 -4.2 L 117.11 -4.68 C 116.95 -4.74 116.79 -4.81 116.64 -4.89 C 116.49 -4.97 116.35 -5.05 116.22 -5.15 C 116.09 -5.25 115.99 -5.37 115.91 -5.5 C 115.84 -5.63 115.8 -5.8 115.8 -5.99 C 115.8 -6.35 115.93 -6.63 116.2 -6.83 C 116.47 -7.04 116.82 -7.14 117.26 -7.14 C 117.63 -7.14 117.96 -7.07 118.25 -6.94 C 118.55 -6.81 118.81 -6.63 119.05 -6.4 L 119.59 -7.04 C 119.31 -7.33 118.97 -7.57 118.57 -7.75 C 118.17 -7.93 117.74 -8.02 117.26 -8.02 C 116.9 -8.02 116.57 -7.96 116.27 -7.86 C 115.97 -7.76 115.71 -7.61 115.49 -7.42 C 115.27 -7.23 115.1 -7.01 114.98 -6.76 C 114.85 -6.5 114.79 -6.22 114.79 -5.93 C 114.79 -5.64 114.84 -5.39 114.94 -5.17 C 115.03 -4.95 115.16 -4.76 115.31 -4.6 C 115.46 -4.44 115.63 -4.3 115.82 -4.19 C 116.02 -4.08 116.2 -3.98 116.39 -3.9 L 117.52 -3.41 C 117.7 -3.32 117.87 -3.24 118.03 -3.16 C 118.19 -3.08 118.33 -2.99 118.45 -2.89 C 118.56 -2.79 118.65 -2.67 118.72 -2.53 C 118.79 -2.39 118.82 -2.22 118.82 -2.02 C 118.82 -1.63 118.68 -1.32 118.39 -1.09 C 118.1 -0.85 117.7 -0.73 117.18 -0.73 C 116.77 -0.73 116.38 -0.82 116 -1 C 115.62 -1.18 115.29 -1.42 115.01 -1.72 Z M 121.39 -7.87 L 121.39 0 L 126.05 0 L 126.05 -0.85 L 122.39 -0.85 L 122.39 -3.71 L 125.38 -3.71 L 125.38 -4.56 L 122.39 -4.56 L 122.39 -7.03 L 125.93 -7.03 L 125.93 -7.87 Z M 127.74 -1.72 L 127.14 -1.02 C 127.48 -0.66 127.89 -0.38 128.36 -0.17 C 128.84 0.04 129.35 0.14 129.9 0.14 C 130.32 0.14 130.69 0.09 131.02 -0.03 C 131.34 -0.15 131.62 -0.31 131.86 -0.51 C 132.09 -0.71 132.27 -0.95 132.39 -1.22 C 132.51 -1.5 132.58 -1.79 132.58 -2.1 C 132.58 -2.39 132.53 -2.64 132.45 -2.86 C 132.37 -3.08 132.25 -3.27 132.11 -3.44 C 131.96 -3.6 131.79 -3.75 131.59 -3.87 C 131.39 -3.99 131.18 -4.1 130.96 -4.2 L 129.84 -4.68 C 129.68 -4.74 129.52 -4.81 129.37 -4.89 C 129.22 -4.97 129.08 -5.05 128.95 -5.15 C 128.82 -5.25 128.72 -5.37 128.65 -5.5 C 128.57 -5.63 128.53 -5.8 128.53 -5.99 C 128.53 -6.35 128.67 -6.63 128.93 -6.83 C 129.2 -7.04 129.56 -7.14 130 -7.14 C 130.36 -7.14 130.69 -7.07 130.99 -6.94 C 131.28 -6.81 131.54 -6.63 131.78 -6.4 L 132.32 -7.04 C 132.04 -7.33 131.7 -7.57 131.3 -7.75 C 130.9 -7.93 130.47 -8.02 130 -8.02 C 129.64 -8.02 129.31 -7.96 129.01 -7.86 C 128.71 -7.76 128.45 -7.61 128.23 -7.42 C 128.01 -7.23 127.83 -7.01 127.71 -6.76 C 127.59 -6.5 127.52 -6.22 127.52 -5.93 C 127.52 -5.64 127.57 -5.39 127.67 -5.17 C 127.76 -4.95 127.89 -4.76 128.04 -4.6 C 128.19 -4.44 128.36 -4.3 128.56 -4.19 C 128.75 -4.08 128.94 -3.98 129.12 -3.9 L 130.25 -3.41 C 130.43 -3.32 130.6 -3.24 130.76 -3.16 C 130.92 -3.08 131.06 -2.99 131.18 -2.89 C 131.29 -2.79 131.39 -2.67 131.45 -2.53 C 131.52 -2.39 131.56 -2.22 131.56 -2.02 C 131.56 -1.63 131.41 -1.32 131.12 -1.09 C 130.84 -0.85 130.43 -0.73 129.91 -0.73 C 129.5 -0.73 129.11 -0.82 128.73 -1 C 128.35 -1.18 128.02 -1.42 127.74 -1.72 Z" stroke-linecap="round" />
</g>
</g>
</g>
</svg>